<svg width="32" height="32" viewBox="0 0 32 32" fill="none" xmlns="http://www.w3.org/2000/svg">
<g clip-path="url(#clip0_95_202)">
<path d="M30.1395 21.2097L25.3672 17.3707C24.1586 16.3985 22.3845 16.5907 21.4124 17.7993L20.1634 19.3519C19.7636 19.8489 19.0341 19.928 18.5372 19.5282L12.835 14.9411C12.3379 14.5413 12.2589 13.8118 12.6587 13.3148L13.9077 11.7622C14.3786 11.1768 14.5933 10.4431 14.5124 9.69608C14.4314 8.9491 14.0644 8.27839 13.4791 7.80744L8.71067 3.97157C8.0842 3.46761 7.27035 3.25585 6.47759 3.38996C5.6849 3.52427 4.98624 3.99264 4.56082 4.67485L3.23342 6.8035C0.750326 10.7854 1.63508 16.0062 5.29151 18.9475L16.2437 27.7579C18.2271 29.3533 20.69 30.0087 23.0651 29.751C25.0689 29.5337 27.0104 28.6666 28.5466 27.1664L30.3415 25.4138C30.9168 24.8521 31.2245 24.0693 31.1859 23.2662C31.1474 22.4632 30.7659 21.7136 30.1395 21.2097ZM30.0934 23.3188C30.117 23.8097 29.9289 24.288 29.5773 24.6313L28.6266 25.5596L25.012 22.6519C24.7767 22.4627 24.4324 22.5 24.243 22.7352C24.0537 22.9706 24.091 23.3149 24.3264 23.5042L27.8384 26.3294L27.7825 26.3839C24.8207 29.2762 20.155 29.5004 16.9294 26.9057L5.97711 18.0952C2.75161 15.5005 1.97105 10.8949 4.16153 7.38232L5.48893 5.25367C5.74887 4.83676 6.1759 4.55053 6.66031 4.46844C7.14523 4.38645 7.64217 4.51588 8.02501 4.82385L12.7934 8.65972C13.5319 9.2538 13.6495 10.3381 13.0553 11.0765L12.1036 12.2596L7.78878 8.78856C7.55346 8.59926 7.20914 8.63658 7.01978 8.8719C6.83048 9.10722 6.8678 9.45154 7.10312 9.6409L11.4861 13.1667C11.1068 14.0686 11.3498 15.1503 12.1492 15.7933L17.8515 20.3805C18.8183 21.1582 20.2377 21.0044 21.0157 20.0375L22.2646 18.4849C22.8587 17.7463 23.943 17.6288 24.6815 18.223L29.4537 22.062C29.8367 22.37 30.0698 22.8281 30.0934 23.3188Z" fill="#E5E9DC"/>
<path d="M17.585 2.1813C17.2847 2.21385 17.0676 2.48364 17.1002 2.78398C17.1327 3.08432 17.4025 3.30135 17.7029 3.2688C23.2732 2.66509 28.2961 6.70573 28.8998 12.276C28.9324 12.5763 29.2022 12.7934 29.5025 12.7608C29.8028 12.7283 30.0198 12.4585 29.9873 12.1582C29.3186 5.98823 23.755 1.51262 17.585 2.1813Z" fill="#E5E9DC"/>
<path d="M17.9905 5.923C17.6902 5.95555 17.4732 6.22534 17.5057 6.52568C17.5383 6.82601 17.808 7.04304 18.1084 7.01049C21.6155 6.63041 24.7779 9.17437 25.158 12.6814C25.1905 12.9817 25.4603 13.1988 25.7606 13.1663C26.061 13.1337 26.278 12.8639 26.2455 12.5636C25.8004 8.45687 22.0972 5.47793 17.9905 5.923Z" fill="#E5E9DC"/>
<path d="M18.418 9.86783C18.1177 9.90037 17.9006 10.1702 17.9332 10.4705C17.9657 10.7708 18.2355 10.9879 18.5359 10.9553C19.8676 10.811 21.0685 11.777 21.2128 13.1088C21.2454 13.409 21.5152 13.6261 21.8155 13.5936C22.1158 13.561 22.3329 13.2912 22.3003 12.9909C22.091 11.0595 20.3494 9.65851 18.418 9.86783Z" fill="#E5E9DC"/>
</g>
<defs>
<clipPath id="clip0_95_202">
<rect width="28" height="28" fill="white" transform="translate(0.9375 3.98535) rotate(-6.18545)"/>
</clipPath>
</defs>
</svg>
