<svg width="60" height="60" viewBox="0 0 60 60" fill="none" xmlns="http://www.w3.org/2000/svg">
<g clip-path="url(#clip0_30_60)">
<path d="M55.2959 18.8109C52.275 15.8244 48.2856 14.1797 44.0625 14.1797C39.522 14.1797 35.1961 16.1329 32.1939 19.5384C32.1938 19.5386 32.1937 19.5387 32.1936 19.5387C31.0845 20.7967 21.1242 32.093 19.8962 33.4857C18.894 34.6219 17.4512 35.2734 15.9375 35.2734C13.0297 35.2734 10.6641 32.9078 10.6641 30C10.6641 27.0922 13.0297 24.7266 15.9375 24.7266C18.9298 24.7266 20.2405 27.0259 20.6264 27.3441L27.6539 19.372C24.6578 16.0699 20.4014 14.1797 15.9375 14.1797C11.7144 14.1797 7.725 15.8244 4.70414 18.8109C1.67062 21.81 0 25.7836 0 30C0 34.2164 1.67062 38.19 4.70414 41.1891C7.725 44.1756 11.7144 45.8203 15.9375 45.8203C20.4763 45.8203 24.8021 43.8673 27.8061 40.4616C27.8063 40.4614 27.8063 40.4613 27.8064 40.4613C27.8207 40.4452 38.2174 28.6552 40.104 26.5158C40.1161 26.5022 40.1278 26.4884 40.1394 26.4744C41.14 25.3629 42.5667 24.7266 44.0625 24.7266C46.9703 24.7266 49.3359 27.0922 49.3359 30C49.3359 32.9078 46.9703 35.2734 44.0625 35.2734C41.0702 35.2734 39.7595 32.9741 39.3736 32.6559L32.3461 40.628C35.3422 43.9301 39.5986 45.8203 44.0625 45.8203C48.2856 45.8203 52.275 44.1756 55.2959 41.1891C58.3294 38.19 60 34.2164 60 30C60 25.7836 58.3294 21.81 55.2959 18.8109Z" fill="#242226"/>
<path d="M28.7571 17.1805C29.4434 17.8669 30.5565 17.867 31.2429 17.1805L38.2742 10.1493C38.9607 9.46278 38.9607 8.34985 38.2742 7.66336L31.2429 0.632112C30.5566 -0.0543726 29.4435 -0.0543726 28.7571 0.632112L21.7258 7.66336C21.0393 8.34985 21.0393 9.46278 21.7258 10.1493L28.7571 17.1805Z" fill="#242226"/>
<path d="M31.2429 42.8195C30.5566 42.133 29.4435 42.133 28.7571 42.8195L21.7258 49.8507C21.0393 50.5372 21.0393 51.6502 21.7258 52.3366L28.7571 59.3679C29.4434 60.0543 30.5565 60.0544 31.2429 59.3679L38.2742 52.3366C38.9607 51.6502 38.9607 50.5372 38.2742 49.8507L31.2429 42.8195Z" fill="#242226"/>
</g>
<defs>
<clipPath id="clip0_30_60">
<rect width="60" height="60" fill="white"/>
</clipPath>
</defs>
</svg>
