<svg width="18" height="18" viewBox="0 0 18 18" fill="none" xmlns="http://www.w3.org/2000/svg">
<g clip-path="url(#clip0_137_2615)">
<path d="M16.6329 6.0508C16.689 5.75015 16.7174 5.44498 16.7178 5.13913C16.7144 2.29859 14.4089 -0.001349 11.5683 0.00207902C9.40596 0.00467829 7.47618 1.3595 6.73919 3.39239C5.41963 2.86711 3.92407 3.51098 3.39876 4.83054C3.35329 4.94476 3.31607 5.06206 3.2874 5.18159C1.18042 5.4967 -0.272161 7.46021 0.0429534 9.56719C0.325558 11.4569 1.94893 12.8549 3.85958 12.8541H9.00285V6.42498C9.00285 6.0699 9.29069 5.78206 9.64578 5.78206C10.0009 5.78206 10.2887 6.0699 10.2887 6.42498V12.8541H14.1462C16.2766 12.8521 18.002 11.1234 18 8.99298C17.9989 7.85899 17.4989 6.78293 16.6329 6.0508Z" fill="#E5E9DC"/>
<path d="M13.3005 13.6854C13.0514 13.4448 12.6564 13.4448 12.4073 13.6854L10.2889 15.8025V12.8541H9.00305V15.8025L6.88593 13.6854C6.63053 13.4387 6.22353 13.4458 5.97687 13.7012C5.73623 13.9503 5.73623 14.3453 5.97687 14.5945L9.19141 17.809C9.44214 18.0604 9.84925 18.0609 10.1006 17.8101C10.101 17.8098 10.1014 17.8094 10.1018 17.809L13.3163 14.5945C13.563 14.3391 13.5559 13.9321 13.3005 13.6854Z" fill="#E5E9DC"/>
</g>
<defs>
<clipPath id="clip0_137_2615">
<rect width="18" height="18" fill="white"/>
</clipPath>
</defs>
</svg>
