<svg width="16" height="16" viewBox="0 0 16 16" fill="none" xmlns="http://www.w3.org/2000/svg">
<path d="M3.52547 16H0.260156V5.48478H3.52547V16ZM1.89105 4.05041C0.846914 4.05041 0 3.18556 0 2.14142C7.47351e-09 1.63988 0.199236 1.15888 0.553877 0.804243C0.908519 0.449602 1.38952 0.250366 1.89105 0.250366C2.39259 0.250366 2.87359 0.449602 3.22823 0.804243C3.58287 1.15888 3.78211 1.63988 3.78211 2.14142C3.78211 3.18556 2.93484 4.05041 1.89105 4.05041ZM15.7465 16H12.4882V10.8813C12.4882 9.66134 12.4636 8.09689 10.7905 8.09689C9.09281 8.09689 8.83266 9.42228 8.83266 10.7934V16H5.57086V5.48478H8.70258V6.91916H8.74828C9.18422 6.09298 10.2491 5.22111 11.8378 5.22111C15.1425 5.22111 15.75 7.39728 15.75 10.2238V16H15.7465Z" fill="#E5E9DC"/>
</svg>
