<svg width="51" height="50" viewBox="0 0 51 50" fill="none" xmlns="http://www.w3.org/2000/svg">
<path d="M43.7813 25C43.7813 14.9219 35.6172 6.71875 25.5 6.71875C15.3828 6.71875 7.25781 14.9219 7.25781 25C7.25781 35.0781 15.4219 43.2813 25.5391 43.2813H43.1172C43.5078 43.2813 43.7813 42.9688 43.8203 42.5781V38.4766C43.8203 38.0859 43.5078 37.8125 43.1172 37.7734H38.5078C41.8672 34.375 43.7813 29.8047 43.7813 25ZM8.625 25C8.625 15.6641 16.2031 8.125 25.5391 8.125C34.875 8.125 42.4141 15.7031 42.4141 25.0391C42.4141 34.375 34.8359 41.9141 25.5391 41.9141C16.1641 41.875 8.625 34.3359 8.625 25ZM42.4141 41.9141H32.4141C33.7812 41.3672 35.5391 40.3906 37.0234 39.1797H42.375V41.9141H42.4141Z" fill="#242226"/>
<path d="M28.2344 25C28.2344 23.4766 27.0234 22.2656 25.5 22.2656C23.9766 22.2656 22.7656 23.4766 22.7656 25C22.7656 26.5234 23.9766 27.7344 25.5 27.7344C27.0234 27.7344 28.2344 26.5234 28.2344 25ZM25.5 26.3672C24.7188 26.3672 24.1328 25.7422 24.1328 25C24.1328 24.2188 24.7578 23.6328 25.5 23.6328C26.2812 23.6328 26.8672 24.2578 26.8672 25C26.8672 25.7812 26.2812 26.3672 25.5 26.3672Z" fill="#242226"/>
<path d="M25.5 18.8672C27.9219 18.8672 29.8359 16.9141 29.8359 14.5313C29.8359 12.1484 27.9219 10.1562 25.5 10.1562C23.0781 10.1562 21.1641 12.1094 21.1641 14.4922C21.1641 16.9141 23.1172 18.8672 25.5 18.8672ZM25.5 11.5234C27.1406 11.5234 28.4687 12.8516 28.4687 14.4922C28.4687 16.1328 27.1406 17.4609 25.5 17.4609C23.8594 17.4609 22.5312 16.1328 22.5312 14.4922C22.5312 12.8516 23.8594 11.5234 25.5 11.5234Z" fill="#242226"/>
<path d="M35.5001 26.0938C38.0391 26.0938 39.8751 24.0625 39.8751 21.7187C39.8751 19.3359 37.922 17.3828 35.5001 17.3828C33.1173 17.3828 31.1642 19.3359 31.1642 21.7578C31.1251 24.1797 33.0782 26.0938 35.5001 26.0938ZM35.461 18.7891C37.1017 18.7891 38.4688 20.1172 38.4688 21.7578C38.4688 23.3594 37.2579 24.7266 35.5001 24.7266C33.8595 24.7266 32.5313 23.3984 32.5313 21.7578C32.4923 20.1172 33.8204 18.7891 35.461 18.7891Z" fill="#242226"/>
<path d="M27.336 33.4766C27.336 35.8984 29.3282 37.8125 31.672 37.8125C34.0939 37.8125 36.0079 35.8203 36.0079 33.4766C36.0079 31.0937 34.0548 29.1406 31.672 29.1406C29.211 29.1406 27.297 31.1328 27.336 33.4766ZM31.672 30.5078C33.2735 30.5078 34.6407 31.8359 34.6407 33.4766C34.6407 35.0781 33.3517 36.4453 31.672 36.4453C30.0314 36.4453 28.7032 35.1172 28.7032 33.4766C28.6642 31.875 29.9923 30.5078 31.672 30.5078Z" fill="#242226"/>
<path d="M19.3281 29.1406C16.9453 29.1406 14.9922 31.0547 14.9922 33.4766C14.9922 35.8594 16.9063 37.8125 19.3281 37.8125C21.7109 37.8125 23.6641 35.8594 23.6641 33.4766C23.6641 31.1328 21.7891 29.1406 19.3281 29.1406ZM19.3281 36.4844C17.6875 36.4844 16.3594 35.1563 16.3594 33.5156C16.3594 31.875 17.7266 30.5469 19.3281 30.5469C20.9297 30.5469 22.2578 31.8359 22.2969 33.3984C22.375 35.0781 21.0078 36.4844 19.3281 36.4844Z" fill="#242226"/>
<path d="M19.8359 21.7969C19.8359 19.375 17.8438 17.4609 15.5 17.4609C13.0781 17.4609 11.1641 19.4531 11.1641 21.7969C11.1641 24.1797 13.1172 26.1328 15.5 26.1328C17.9219 26.0938 19.8359 24.1406 19.8359 21.7969ZM12.5312 21.7578C12.5312 20.1172 13.8594 18.7891 15.5 18.7891C17.1406 18.7891 18.5078 20.1172 18.4688 21.7969C18.4688 23.4375 17.1406 24.7656 15.5 24.7656C13.8594 24.7266 12.5312 23.3984 12.5312 21.7578Z" fill="#242226"/>
</svg>
