<svg width="50" height="50" viewBox="0 0 50 50" fill="none" xmlns="http://www.w3.org/2000/svg">
<path d="M46.0938 13.2813H44.5312V11.7188C44.5307 11.3045 44.3659 10.9074 44.073 10.6145C43.7801 10.3216 43.383 10.1568 42.9688 10.1563H39.8438C39.4295 10.1568 39.0324 10.3216 38.7395 10.6145C38.4466 10.9074 38.2818 11.3045 38.2812 11.7188V13.2813H34.0332C33.8588 13.2815 33.6894 13.2233 33.5519 13.116C33.4145 13.0087 33.3169 12.8585 33.2748 12.6892L32.3052 8.80471C32.1796 8.29709 31.8872 7.84635 31.4749 7.52477C31.0625 7.20319 30.5542 7.0294 30.0312 7.03127H19.9688C19.4461 7.02918 18.9379 7.20267 18.5257 7.52391C18.1134 7.84515 17.821 8.29554 17.6953 8.80283L16.7241 12.69C16.6821 12.8591 16.5846 13.0093 16.4472 13.1165C16.3098 13.2236 16.1405 13.2817 15.9663 13.2813H13.2812V11.7188C13.2807 11.3045 13.1159 10.9074 12.823 10.6145C12.5301 10.3216 12.133 10.1568 11.7188 10.1563H5.46875C5.05451 10.1568 4.6574 10.3216 4.36449 10.6145C4.07158 10.9074 3.90679 11.3045 3.90625 11.7188V13.2813C3.28486 13.282 2.68911 13.5291 2.24972 13.9685C1.81033 14.4079 1.56318 15.0036 1.5625 15.625V40.625C1.56318 41.2464 1.81033 41.8422 2.24972 42.2815C2.68911 42.7209 3.28486 42.9681 3.90625 42.9688H46.0938C46.7151 42.9681 47.3109 42.7209 47.7503 42.2815C48.1897 41.8422 48.4368 41.2464 48.4375 40.625V15.625C48.4368 15.0036 48.1897 14.4079 47.7503 13.9685C47.3109 13.5291 46.7151 13.282 46.0938 13.2813ZM39.8438 11.7188H42.9688V13.2813H39.8438V11.7188ZM5.46875 11.7188H11.7188V13.2813H5.46875V11.7188ZM3.90625 14.8438H15.9668C16.4898 14.8445 16.9979 14.67 17.41 14.348C17.8221 14.0261 18.1144 13.5753 18.2402 13.0677L19.2116 9.17971C19.254 9.01138 19.3516 8.86215 19.4889 8.75591C19.6262 8.64968 19.7952 8.59258 19.9688 8.59377H30.0312C30.2051 8.59274 30.3743 8.65007 30.5117 8.75659C30.6491 8.86311 30.7467 9.01265 30.7891 9.18127L31.7587 13.0669C31.8847 13.5747 32.1771 14.0256 32.5894 14.3477C33.0017 14.6698 33.51 14.8445 34.0332 14.8438H46.0938C46.3009 14.8439 46.4995 14.9263 46.646 15.0728C46.7925 15.2192 46.8749 15.4179 46.875 15.625V30.4688H35.6787C36.0328 28.8703 36.0234 27.2128 35.6514 25.6184C35.2794 24.024 34.5541 22.5335 33.5292 21.2568C32.5043 19.9801 31.2059 18.9498 29.7297 18.2418C28.2535 17.5338 26.6372 17.1663 25 17.1663C23.3628 17.1663 21.7465 17.5338 20.2703 18.2418C18.7941 18.9498 17.4957 19.9801 16.4708 21.2568C15.4459 22.5335 14.7207 24.024 14.3486 25.6184C13.9766 27.2128 13.9672 28.8703 14.3212 30.4688H3.125V15.625C3.12514 15.4179 3.2075 15.2192 3.35398 15.0728C3.50046 14.9263 3.69909 14.8439 3.90625 14.8438ZM16.079 31.0078C15.7767 30.0768 15.6235 29.1039 15.625 28.125C15.625 25.6386 16.6127 23.254 18.3709 21.4959C20.129 19.7377 22.5136 18.75 25 18.75C27.4864 18.75 29.871 19.7377 31.6291 21.4959C33.3873 23.254 34.375 25.6386 34.375 28.125C34.3752 30.3587 33.5779 32.519 32.1266 34.2169C30.6754 35.9149 28.6656 37.0389 26.4592 37.3865C24.2528 37.7342 21.9947 37.2827 20.0917 36.1132C18.1886 34.9438 16.7656 33.1333 16.079 31.0078ZM46.0938 41.4063H3.90625C3.69909 41.4061 3.50046 41.3238 3.35398 41.1773C3.2075 41.0308 3.12514 40.8322 3.125 40.625V32.0313H14.7905C15.5799 34.0994 16.9787 35.8791 18.8018 37.1346C20.6249 38.3902 22.7864 39.0625 25 39.0625C27.2137 39.0625 29.3751 38.3902 31.1983 37.1346C33.0214 35.8791 34.4202 34.0994 35.2095 32.0313H46.875V40.625C46.8749 40.8322 46.7925 41.0308 46.646 41.1773C46.4995 41.3238 46.3009 41.4061 46.0938 41.4063Z" fill="#242226"/>
<path d="M42.4072 16.4062H40.4053C39.6637 16.4062 39.0625 17.0074 39.0625 17.7491V18.1884C39.0625 18.9301 39.6637 19.5312 40.4053 19.5312H42.4072C43.1488 19.5312 43.75 18.9301 43.75 18.1884V17.7491C43.75 17.0074 43.1488 16.4062 42.4072 16.4062Z" fill="#242226"/>
<path d="M21.875 14.0625H28.125C28.5392 14.062 28.9363 13.8972 29.2293 13.6043C29.5222 13.3114 29.687 12.9142 29.6875 12.5V10.9375C29.687 10.5233 29.5222 10.1261 29.2293 9.83324C28.9363 9.54033 28.5392 9.37554 28.125 9.375H21.875C21.4608 9.37554 21.0636 9.54033 20.7707 9.83324C20.4778 10.1261 20.313 10.5233 20.3125 10.9375V12.5C20.313 12.9142 20.4778 13.3114 20.7707 13.6043C21.0636 13.8972 21.4608 14.062 21.875 14.0625ZM21.875 10.9375H28.125V12.5H21.875V10.9375Z" fill="#242226"/>
<path d="M7.8125 22.6563C8.43057 22.6563 9.03475 22.473 9.54866 22.1296C10.0626 21.7862 10.4631 21.2982 10.6996 20.7271C10.9361 20.1561 10.998 19.5278 10.8775 18.9216C10.7569 18.3154 10.4592 17.7586 10.0222 17.3215C9.58517 16.8845 9.02835 16.5869 8.42216 16.4663C7.81597 16.3457 7.18763 16.4076 6.61661 16.6441C6.04559 16.8807 5.55754 17.2812 5.21416 17.7951C4.87078 18.309 4.6875 18.9132 4.6875 19.5313C4.68833 20.3598 5.01783 21.1542 5.6037 21.74C6.18958 22.3259 6.98395 22.6554 7.8125 22.6563ZM7.8125 17.9688C8.12153 17.9688 8.42363 18.0604 8.68058 18.2321C8.93753 18.4038 9.1378 18.6478 9.25606 18.9333C9.37432 19.2188 9.40527 19.533 9.34498 19.8361C9.28469 20.1392 9.13587 20.4176 8.91735 20.6361C8.69883 20.8546 8.42042 21.0034 8.11733 21.0637C7.81423 21.124 7.50007 21.0931 7.21456 20.9748C6.92905 20.8566 6.68502 20.6563 6.51333 20.3993C6.34164 20.1424 6.25 19.8403 6.25 19.5313C6.25054 19.117 6.41533 18.7199 6.70824 18.427C7.00115 18.1341 7.39826 17.9693 7.8125 17.9688Z" fill="#242226"/>
<path d="M25 35.9376C26.7005 35.9389 28.3551 35.3858 29.713 34.3622C31.0709 33.3385 32.058 31.9 32.5247 30.2648C32.9915 28.6296 32.9124 26.8868 32.2995 25.3006C31.6865 23.7144 30.5732 22.3713 29.1282 21.4748C27.6832 20.5783 25.9853 20.1774 24.2919 20.3328C22.5985 20.4881 21.0019 21.1914 19.7441 22.3358C18.4864 23.4803 17.636 25.0036 17.322 26.6749C17.008 28.3461 17.2473 30.0742 18.0038 31.5972C18.646 32.9036 19.6425 34.0032 20.8795 34.7707C22.1165 35.5381 23.5443 35.9424 25 35.9376ZM25 21.8751C26.0637 21.8744 27.1099 22.1455 28.0395 22.6625C28.9691 23.1795 29.7513 23.9253 30.3119 24.8292C30.8726 25.7332 31.1931 26.7653 31.2431 27.8278C31.2931 28.8903 31.0709 29.948 30.5977 30.9006L30.5969 30.9029C30.1017 31.9004 29.349 32.7475 28.4166 33.3565C27.4842 33.9655 26.406 34.3143 25.2936 34.3667C24.1811 34.4192 23.0749 34.1734 22.0893 33.6548C21.1038 33.1362 20.2747 32.3637 19.6879 31.4172C19.101 30.4707 18.7778 29.3845 18.7517 28.2712C18.7255 27.1578 18.9973 26.0577 19.539 25.0846C20.0807 24.1116 20.8726 23.301 21.8327 22.7367C22.7929 22.1724 23.8863 21.8749 25 21.8751Z" fill="#242226"/>
</svg>
