<svg width="113" height="113" viewBox="0 0 113 113" fill="none" xmlns="http://www.w3.org/2000/svg">
<path fill-rule="evenodd" clip-rule="evenodd" d="M19.5713 85.888C19.1299 85.7961 18.6729 85.8124 18.2392 85.9355C17.8054 86.0587 17.4076 86.285 17.0796 86.5954C16.7904 86.8256 16.5542 87.1158 16.3872 87.4462C16.2202 87.7765 16.1263 88.1392 16.112 88.5094C16.1673 89.4823 16.4704 90.4248 16.9923 91.2466L17.4559 92.0802C17.8135 92.6376 18.0462 93.2662 18.1382 93.9226C18.1484 94.135 18.107 94.3467 18.0176 94.5395C17.9282 94.7323 17.7934 94.9004 17.6249 95.0294C17.4673 95.1797 17.2741 95.2872 17.0635 95.3417C16.853 95.3963 16.6321 95.3961 16.4217 95.3411C15.8854 95.1658 15.4147 94.8311 15.0722 94.3813C14.5764 93.8977 14.2537 93.2632 14.1543 92.5766C14.1575 92.2877 14.2216 92.0028 14.3424 91.7406C14.4633 91.4784 14.6381 91.2449 14.8554 91.0554L13.8108 89.8497C13.4495 90.1481 13.1585 90.5232 12.9589 90.9479C12.7593 91.3727 12.656 91.8366 12.6565 92.3063C12.7542 93.4364 13.2488 94.495 14.052 95.2931C14.6573 96.0725 15.5051 96.6262 16.4602 96.8661C16.8588 96.9537 17.2726 96.9433 17.6664 96.8359C18.0602 96.7285 18.4223 96.5272 18.722 96.2492C19.0265 96.0102 19.2748 95.7069 19.4495 95.3608C19.6242 95.0148 19.7209 94.6344 19.7327 94.2466C19.6919 93.323 19.4089 92.4266 18.9125 91.6479L18.4582 90.8256C18.1011 90.2486 17.8548 89.6096 17.7319 88.9417C17.7123 88.7307 17.7456 88.518 17.8289 88.3232C17.9122 88.1284 18.0427 87.9577 18.2086 87.8265C18.3935 87.6465 18.6206 87.5162 18.869 87.4477C19.1174 87.3792 19.3789 87.3747 19.6295 87.4347C20.2428 87.6253 20.782 88.0025 21.1724 88.5141C22.4281 89.9621 22.4615 91.2249 21.2728 92.3025L22.3267 93.5185C22.7448 93.1932 23.0828 92.7757 23.3144 92.2982C23.546 91.8208 23.665 91.2963 23.6622 90.7653C23.5585 89.5864 23.05 88.4803 22.2235 87.6362C21.5587 86.7727 20.625 86.1573 19.5713 85.888ZM15.1829 78.7897C14.3921 78.5107 13.5245 78.5484 12.7607 78.8952L13.5302 80.2243C13.9698 80.0363 14.464 80.0222 14.9136 80.1847C15.3424 80.3566 15.6979 80.6734 15.9187 81.0805C16.0772 81.3324 16.1746 81.6181 16.2031 81.9147C16.2317 82.2113 16.1905 82.5104 16.0829 82.7882C15.7441 83.4246 15.2354 83.9537 14.6138 84.3162C13.9922 84.6787 13.2822 84.8603 12.5636 84.8406C12.2699 84.7968 11.9905 84.6845 11.7478 84.5127C11.5051 84.341 11.3059 84.1145 11.1662 83.8516C10.9273 83.466 10.8279 83.0097 10.8846 82.5593C10.9584 82.0985 11.1994 81.6815 11.5613 81.3885L10.7917 80.0594C10.1292 80.5452 9.67724 81.2672 9.5285 82.077C9.39736 82.9227 9.57715 83.7875 10.0344 84.51C10.2664 84.9531 10.5914 85.3405 10.9868 85.6455C11.3823 85.9505 11.8389 86.166 12.3252 86.277C13.3848 86.427 14.4639 86.2151 15.3891 85.6754C16.3144 85.1358 17.032 84.2997 17.4268 83.3015C17.5745 82.8222 17.6168 82.3165 17.5508 81.8192C17.4849 81.322 17.3123 80.845 17.0449 80.4211C16.6416 79.6689 15.9799 79.0892 15.1829 78.7897ZM8.10481 76.9445L6.81814 77.4493L7.34276 78.7963L14.5597 75.9705L14.0136 74.5671L10.0972 76.1034C9.82093 76.2335 9.51982 76.3021 9.2146 76.3043C8.90939 76.3066 8.60731 76.2425 8.32911 76.1165C7.76587 75.796 7.3439 75.2739 7.14755 74.6547L7.01053 74.3043L5.68163 74.8251C5.72276 74.9651 5.77099 75.1028 5.82615 75.2377C5.98805 75.7214 6.29276 76.1441 6.69977 76.4498C7.10678 76.7555 7.59683 76.9297 8.10481 76.9492V76.9445ZM7.24233 64.9049C6.712 65 6.20558 65.1992 5.75208 65.4911C5.29859 65.783 4.90693 66.1619 4.59955 66.606C4.08448 67.5029 3.92813 68.5628 4.16212 69.5711C4.39611 70.5794 5.00299 71.4608 5.85994 72.0371C6.8236 72.5217 7.92581 72.6525 8.97553 72.407C10.0252 72.1616 10.9563 71.5551 11.6073 70.6929C12.1316 69.7984 12.2932 68.7358 12.0586 67.725C11.824 66.7142 11.2111 65.8326 10.3469 65.2628C9.87831 65.001 9.36289 64.8347 8.83015 64.7733C8.29741 64.7118 7.75782 64.7566 7.24233 64.9049ZM8.62849 70.8785C7.92955 71.0862 7.17967 71.0364 6.51406 70.7382C6.23218 70.5953 5.98685 70.3892 5.79709 70.1359C5.60733 69.8825 5.47822 69.5887 5.41978 69.2773C5.33466 68.9729 5.32105 68.6529 5.38 68.3423C5.43895 68.0318 5.56885 67.7392 5.75952 67.4876C6.25568 66.963 6.89428 66.5958 7.59622 66.4318C8.29816 66.2677 9.03262 66.3139 9.70869 66.5645C9.99041 66.7057 10.2357 66.9105 10.4252 67.1628C10.6148 67.4152 10.7434 67.7082 10.8011 68.0188C10.886 68.3243 10.8997 68.6453 10.8411 68.957C10.7825 69.2687 10.6532 69.5626 10.4632 69.816C9.99674 70.3776 9.34636 70.7542 8.62849 70.8785ZM0.221477 62.5171L0.381964 64.0157L11.0123 62.8722L10.8527 61.3736L0.221477 62.5171ZM0 59.032L0.070384 60.539L10.7504 60.038L10.68 58.5309L0 59.032ZM3.16178 50.1421C3.07703 50.6218 3.09993 51.1143 3.22884 51.5839C3.35775 52.0535 3.58941 52.4884 3.90693 52.8567C4.67691 53.592 5.65897 54.0638 6.71244 54.2045C7.76592 54.3453 8.83676 54.1478 9.77157 53.6404C10.1742 53.3683 10.5113 53.0095 10.7583 52.5901C11.0052 52.1706 11.1558 51.7012 11.199 51.2159C11.2913 50.7151 11.2501 50.1987 11.0795 49.719C10.9089 49.2393 10.6151 48.8134 10.2277 48.4843L11.3595 48.636L11.5472 47.2014L0.949747 45.7886L0.751727 47.2825L4.71123 47.8118C4.27696 48.0366 3.90675 48.3684 3.63538 48.7762C3.36401 49.184 3.2004 49.6544 3.1599 50.1431L3.16178 50.1421ZM6.97863 52.6589C6.23857 52.6034 5.54126 52.2895 5.00779 51.7717C4.79137 51.5421 4.6312 51.2651 4.53998 50.9627C4.44875 50.6602 4.42898 50.3406 4.48224 50.0291C4.50858 49.7138 4.60695 49.4088 4.7697 49.1378C4.93246 48.8668 5.15523 48.6371 5.42073 48.4665C6.06279 48.115 6.80694 47.9994 7.52483 48.1396C8.25043 48.1874 8.93496 48.4945 9.45437 49.0052C9.66956 49.2379 9.82767 49.5178 9.91614 49.8226C10.0046 50.1274 10.021 50.4487 9.96397 50.761C9.93605 51.0717 9.83921 51.3722 9.68056 51.6404C9.5219 51.9087 9.30544 52.138 9.04706 52.3114C8.42444 52.677 7.68979 52.8007 6.98238 52.6589H6.97863ZM10.7814 36.8347C10.2816 36.633 9.74706 36.5322 9.2084 36.5381C8.66975 36.5439 8.13752 36.6562 7.64214 36.8686C6.73054 37.3538 6.03681 38.1687 5.70153 39.1481C5.36625 40.1276 5.41449 41.1983 5.83647 42.1433C6.39635 43.0679 7.26105 43.7665 8.28052 44.118C9.3 44.4695 10.4099 44.4517 11.4177 44.0677C12.3358 43.5893 13.0355 42.7747 13.3716 41.7928C13.7078 40.8108 13.6547 39.7367 13.2233 38.7929C12.9647 38.3216 12.6161 37.9061 12.1974 37.5701C11.7787 37.2341 11.2982 36.9842 10.7833 36.8347H10.7814ZM8.79554 42.6369C8.09374 42.44 7.48484 41.9985 7.07809 41.3917C6.9152 41.12 6.81661 40.8143 6.78993 40.4983C6.76324 40.1824 6.80919 39.8644 6.9242 39.5691C7.01323 39.2659 7.17109 38.9876 7.38539 38.756C7.59969 38.5244 7.86458 38.3459 8.15924 38.2344C8.85673 38.0537 9.59171 38.0823 10.2732 38.3167C10.9546 38.5511 11.5526 38.9809 11.993 39.5531C12.1572 39.8228 12.2568 40.1272 12.284 40.4421C12.3112 40.7571 12.2652 41.074 12.1497 41.3681C12.0595 41.6719 11.9011 41.9509 11.6867 42.1836C11.4723 42.4163 11.2075 42.5965 10.9128 42.7104C10.2208 42.9393 9.47013 42.9133 8.79554 42.6369ZM17.0543 29.8419C16.6163 29.7194 15.6938 29.4767 14.2866 29.1138L11.0151 28.2933L10.2446 29.5866L12.5082 32.1025C13.2965 32.9728 13.9535 33.6711 14.479 34.1973C13.5068 33.9304 12.5773 33.6893 11.6908 33.4739L8.40607 32.6658L7.57456 34.0635L15.5433 35.8391L16.3598 34.4676L13.9723 31.8077C13.6288 31.4252 13.0388 30.7904 12.2023 29.9031C13.0031 30.1266 13.8421 30.343 14.7193 30.5521L18.1917 31.3885L18.9998 30.0293L13.6663 23.8268L12.8423 25.2114L15.0947 27.7395C16.0789 28.807 16.7292 29.5069 17.0458 29.839L17.0543 29.8419ZM17.409 21.5257L16.5644 20.7288L15.5743 21.78L21.2052 27.1216L22.2375 26.0261L19.0617 23.012C18.8272 22.8166 18.6353 22.5748 18.4979 22.3018C18.3605 22.0288 18.2806 21.7302 18.263 21.4249C18.2538 21.1724 18.2944 20.9206 18.3825 20.6839C18.4706 20.4473 18.6045 20.2304 18.7764 20.0459C18.9045 19.8621 19.0735 19.7108 19.27 19.6039C19.4665 19.497 19.6851 19.4375 19.9085 19.4301C20.1318 19.4227 20.3538 19.4676 20.5569 19.5613C20.76 19.6549 20.9386 19.7947 21.0785 19.9696L24.702 23.4057L25.7344 22.3103L21.9588 18.731C21.7184 18.4502 21.4189 18.2265 21.0818 18.0762C20.7447 17.9258 20.3786 17.8525 20.0099 17.8615C19.6411 17.8705 19.279 17.9616 18.9496 18.1283C18.6202 18.295 18.3319 18.533 18.1054 18.8252C17.763 19.1731 17.5181 19.6056 17.3953 20.0789C17.2726 20.5522 17.2763 21.0496 17.4062 21.5209L17.409 21.5257ZM51.3139 9.63579C51.6114 9.29602 51.8229 8.88924 51.9304 8.44995C52.0379 8.01066 52.0382 7.55183 51.9314 7.11238C51.875 6.74623 51.7402 6.39667 51.5364 6.08775C51.3326 5.77882 51.0646 5.51784 50.7508 5.32274C49.8806 4.89051 48.9144 4.68975 47.9447 4.73969L46.994 4.73214C46.3348 4.76858 45.6756 4.66125 45.0617 4.41754C44.8727 4.32125 44.7097 4.18051 44.5866 4.0073C44.4636 3.8341 44.3841 3.63358 44.355 3.42287C44.3026 3.21107 44.305 2.98936 44.3618 2.77872C44.4186 2.56808 44.528 2.37546 44.6797 2.2191C45.0973 1.83684 45.6211 1.59141 46.1813 1.51549C46.8455 1.32306 47.5545 1.35618 48.1981 1.60969C48.4468 1.75537 48.662 1.9522 48.8296 2.18726C48.9972 2.42232 49.1133 2.69029 49.1704 2.97358L50.7301 2.65615C50.6501 2.19353 50.4689 1.75447 50.1995 1.37058C49.9301 0.986693 49.5793 0.667523 49.1722 0.436051C48.1448 -0.0370399 46.9834 -0.128507 45.895 0.177963C44.9209 0.321512 44.0227 0.788032 43.3433 1.50324C43.0705 1.80787 42.8751 2.17411 42.7736 2.57081C42.6721 2.96751 42.6676 3.38293 42.7605 3.78175C42.8172 4.16548 42.9572 4.532 43.1706 4.85541C43.384 5.17883 43.6656 5.45124 43.9955 5.65335C44.8166 6.07291 45.7333 6.26783 46.6533 6.21849L47.5918 6.22886C48.2676 6.20192 48.9424 6.30224 49.5814 6.52461C49.7738 6.61194 49.9414 6.74606 50.069 6.91482C50.1967 7.08357 50.2804 7.28162 50.3125 7.49103C50.3768 7.74145 50.3774 8.00409 50.3141 8.25477C50.2508 8.50545 50.1257 8.73614 49.9503 8.92558C49.482 9.36664 48.8887 9.6507 48.2525 9.73845C46.3756 10.119 45.265 9.52432 44.9209 7.95446L43.3461 8.27377C43.4219 8.79936 43.617 9.30042 43.9165 9.73828C44.2159 10.1761 44.6115 10.5391 45.0729 10.7991C46.1451 11.2912 47.3545 11.3937 48.4937 11.0892C49.5679 10.9321 50.5591 10.4196 51.3101 9.63296L51.3139 9.63579ZM59.5811 9.29953C60.2081 8.74229 60.5973 7.96411 60.6679 7.12651L59.1362 7.15193C59.0856 7.62874 58.8569 8.0686 58.4962 8.38303C58.1372 8.67454 57.6881 8.83112 57.2264 8.82573C56.9298 8.84162 56.6337 8.78742 56.3618 8.66751C56.0899 8.54759 55.8499 8.3653 55.661 8.13531C55.2732 7.528 55.0617 6.82429 55.05 6.10307C55.0384 5.38185 55.2273 4.67163 55.5953 4.05207C55.7764 3.81582 56.0103 3.62563 56.2782 3.49686C56.546 3.36809 56.8403 3.30436 57.1372 3.31079C57.5891 3.29056 58.0341 3.4269 58.3976 3.69697C58.7619 3.98668 59.0066 4.40135 59.0846 4.86119L60.6162 4.8367C60.5173 4.01913 60.1103 3.27058 59.4788 2.7447C58.807 2.2173 57.9673 1.95256 57.1157 1.99964C56.6172 1.98668 56.122 2.08216 55.6638 2.27955C55.2057 2.47694 54.7955 2.77155 54.4616 3.14312C53.8134 3.99781 53.4702 5.04637 53.4872 6.12036C53.5042 7.19435 53.8805 8.23142 54.5555 9.06498C54.9001 9.42821 55.3191 9.71213 55.7836 9.89718C56.2481 10.0822 56.7471 10.164 57.2461 10.1369C58.0994 10.1487 58.928 9.84878 59.5773 9.29293L59.5811 9.29953ZM64.6996 4.03513L64.8948 2.66275L63.4674 2.45929L62.3759 10.1576L63.8625 10.3705L64.4546 6.19212C64.4774 5.88679 64.5658 5.59004 64.7137 5.32225C64.8617 5.05446 65.0656 4.82197 65.3115 4.64077C65.8666 4.30593 66.5272 4.19358 67.1612 4.32617L67.5367 4.37892L67.7375 2.96604C67.5961 2.93215 67.4529 2.90637 67.3086 2.88882C66.8094 2.79253 66.2927 2.85097 65.8274 3.0564C65.3621 3.26183 64.97 3.6045 64.7034 4.03889L64.6996 4.03513ZM75.5551 9.1912C75.7328 8.68073 75.8084 8.14011 75.7777 7.60027C75.7469 7.06044 75.6104 6.532 75.3759 6.04519C74.8505 5.15423 74.0074 4.49696 73.0173 4.20648C72.0272 3.91599 70.9642 4.01399 70.0434 4.48065C69.1494 5.08496 68.4943 5.98423 68.1918 7.02251C67.8892 8.06079 67.9583 9.1726 68.3869 10.1651C68.9057 11.0632 69.7487 11.7265 70.7414 12.0178C71.7341 12.309 72.8004 12.2059 73.7194 11.7297C74.1768 11.4486 74.5743 11.0796 74.8893 10.644C75.2043 10.2084 75.4306 9.71472 75.5551 9.1912ZM69.6886 7.46937C69.8527 6.75694 70.2639 6.12629 70.8486 5.69009C71.1112 5.51375 71.4108 5.40044 71.7241 5.35896C72.0374 5.31747 72.3559 5.3489 72.6552 5.45083C72.9611 5.52611 73.2455 5.67153 73.486 5.87565C73.7265 6.07977 73.9166 6.33704 74.0414 6.62729C74.2529 7.31864 74.2578 8.05705 74.0554 8.75116C73.8531 9.44526 73.4524 10.0646 72.903 10.5325C72.6421 10.7097 72.3439 10.8237 72.0317 10.8656C71.7195 10.9074 71.4019 10.8759 71.1039 10.7736C70.7972 10.6977 70.512 10.5519 70.2705 10.3476C70.0289 10.1433 69.8376 9.88583 69.7111 9.59529C69.4498 8.91154 69.4405 8.15657 69.6849 7.46654L69.6886 7.46937ZM81.0941 4.2367L79.7155 3.63952L75.4791 13.4911L76.8577 14.0883L81.0941 4.2367ZM84.2259 5.7579L82.8857 5.07783L78.0628 14.6543L79.402 15.3344L84.2259 5.7579ZM90.3767 12.908C90.0027 12.5971 89.5644 12.3738 89.0936 12.2544C88.6228 12.1349 88.1313 12.1224 87.6551 12.2176C86.638 12.5267 85.7445 13.1509 85.1024 14.0007C84.4603 14.8506 84.1025 15.8825 84.0804 16.9489C84.1171 17.4347 84.2614 17.9062 84.5028 18.3289C84.7443 18.7516 85.0767 19.1149 85.4759 19.3922C85.8641 19.7197 86.3317 19.9384 86.8312 20.0262C87.3307 20.1141 87.8445 20.0679 88.3205 19.8924L87.6307 20.8051L88.7794 21.6792L95.24 13.1303L94.0434 12.2195L91.6268 15.4154C91.6463 14.9254 91.5415 14.4384 91.3222 14.0002C91.1029 13.5619 90.7763 13.1868 90.373 12.9099L90.3767 12.908ZM86.3112 14.9963C86.7244 14.3767 87.3412 13.9224 88.054 13.7124C88.3598 13.6365 88.679 13.6333 88.9862 13.703C89.2935 13.7726 89.5803 13.9132 89.8239 14.1137C90.084 14.2918 90.2998 14.5276 90.4546 14.8028C90.6093 15.078 90.6989 15.3853 90.7164 15.7008C90.7029 16.4342 90.4359 17.1401 89.961 17.6977C89.5606 18.3075 88.9561 18.7535 88.2567 18.9551C87.9489 19.0279 87.6285 19.0275 87.3209 18.9541C87.0133 18.8807 86.727 18.7362 86.4848 18.5322C86.2293 18.3546 86.0168 18.1218 85.8629 17.8509C85.7089 17.58 85.6174 17.2778 85.5951 16.9668C85.585 16.244 85.8399 15.5428 86.3112 14.9963ZM98.1465 26.1053C98.5673 25.7677 98.9177 25.3502 99.1776 24.8767C99.4375 24.4031 99.6018 23.8828 99.6612 23.3454C99.6883 22.3105 99.3225 21.3039 98.6379 20.5295C97.9532 19.7551 97.001 19.2708 95.9739 19.1746C94.8972 19.2103 93.8669 19.6228 93.0614 20.3407C92.2558 21.0585 91.7258 22.0365 91.563 23.1053C91.5266 24.1428 91.8893 25.1546 92.5759 25.9311C93.2625 26.7076 94.2205 27.1892 95.2512 27.2761C95.7874 27.2818 96.3195 27.1813 96.8169 26.9804C97.3144 26.7795 97.7675 26.4821 98.1503 26.1053H98.1465ZM94.0903 21.5172C94.606 21.0003 95.2886 20.6853 96.0152 20.6289C96.3284 20.6326 96.6373 20.702 96.9221 20.8326C97.207 20.9632 97.4616 21.1521 97.6694 21.3872C97.8773 21.6223 98.0338 21.8985 98.1291 22.1979C98.2243 22.4973 98.2562 22.8135 98.2225 23.126C98.0355 23.8244 97.6486 24.4524 97.1097 24.9324C96.5707 25.4124 95.9034 25.7232 95.1902 25.8265C94.8756 25.8375 94.5628 25.7752 94.2762 25.6444C93.9896 25.5137 93.7371 25.318 93.5385 25.0729C93.3192 24.8447 93.1549 24.569 93.0584 24.2671C92.9619 23.9651 92.9358 23.645 92.982 23.3313C93.1229 22.613 93.5146 21.9687 94.0866 21.5143L94.0903 21.5172ZM101.154 35.0394C101.477 34.7154 102.141 34.0281 103.146 32.9775L105.464 30.5191L104.719 29.2108L101.425 29.9549C100.282 30.2167 99.3528 30.4485 98.6383 30.65C99.3465 29.9317 100.012 29.2375 100.634 28.5674L102.946 26.0959L102.141 24.683L96.6881 30.7791L97.4783 32.1665L100.959 31.3847C101.46 31.2717 102.3 31.0673 103.481 30.7715C102.895 31.3624 102.295 31.9904 101.682 32.6554L99.2511 35.2824L100.034 36.6557L108.034 35.0347L107.238 33.635L103.935 34.3659C102.524 34.7012 101.597 34.9263 101.154 35.0413V35.0394ZM108.193 39.4137L109.299 39.0718L108.873 37.689L101.47 39.9816L101.912 41.4218L106.087 40.1295C106.372 40.0204 106.676 39.9715 106.981 39.9857C107.285 40 107.584 40.0772 107.857 40.2124C108.081 40.3292 108.279 40.4892 108.441 40.6832C108.603 40.8771 108.726 41.1012 108.801 41.3427C108.897 41.5452 108.945 41.7675 108.941 41.9919C108.937 42.2162 108.881 42.4366 108.778 42.6354C108.674 42.8343 108.526 43.0062 108.344 43.1376C108.163 43.2689 107.954 43.3562 107.733 43.3923L102.97 44.8674L103.412 46.3076L108.377 44.7704C108.739 44.698 109.08 44.5459 109.376 44.3251C109.672 44.1042 109.915 43.8201 110.089 43.4933C110.262 43.1664 110.361 42.805 110.378 42.4352C110.395 42.0654 110.33 41.6965 110.187 41.3549C110.054 40.8847 109.799 40.458 109.449 40.1179C109.099 39.7777 108.666 39.5362 108.193 39.4174V39.4137ZM101.811 74.909C101.96 75.3361 102.209 75.7208 102.538 76.0305C102.866 76.3403 103.265 76.5659 103.699 76.6883C104.044 76.819 104.414 76.873 104.782 76.8467C105.15 76.8204 105.508 76.7143 105.832 76.5357C106.634 75.9873 107.283 75.2414 107.716 74.3693L108.186 73.5413C108.477 72.9473 108.893 72.4235 109.406 72.006C109.582 71.8878 109.784 71.8143 109.995 71.792C110.205 71.7697 110.418 71.7992 110.615 71.8779C110.825 71.9359 111.017 72.0467 111.172 72.1999C111.327 72.353 111.44 72.5434 111.501 72.7529C111.628 73.3042 111.584 73.881 111.376 74.4069C111.218 75.0828 110.842 75.6873 110.307 76.1269C110.058 76.2728 109.782 76.3642 109.496 76.3952C109.209 76.4262 108.92 76.3961 108.646 76.3068L108.155 77.8261C108.596 77.9832 109.066 78.0403 109.531 77.9934C109.997 77.9465 110.446 77.7967 110.847 77.5548C111.762 76.8886 112.411 75.9184 112.68 74.8167C113.034 73.8945 113.071 72.8799 112.784 71.9344C112.654 71.5465 112.432 71.196 112.138 70.9124C111.844 70.6289 111.486 70.4208 111.095 70.3058C110.734 70.1665 110.347 70.1087 109.962 70.1365C109.577 70.1643 109.202 70.2771 108.865 70.4669C108.097 70.9773 107.476 71.6824 107.067 72.5108L106.598 73.3247C106.289 73.9288 105.87 74.4696 105.364 74.9193C105.193 75.0447 104.994 75.1253 104.785 75.154C104.576 75.1826 104.363 75.1583 104.165 75.0833C103.916 75.0168 103.688 74.8884 103.502 74.7099C103.315 74.5314 103.177 74.3086 103.099 74.0622C102.946 73.4362 102.99 72.7778 103.227 72.1784C103.817 70.3535 104.879 69.6751 106.411 70.1429L106.907 68.6085C106.414 68.4165 105.883 68.3409 105.356 68.3876C104.829 68.4343 104.32 68.6021 103.868 68.8779C102.914 69.5736 102.231 70.5806 101.936 71.7263C101.542 72.7423 101.497 73.8614 101.808 74.9062L101.811 74.909ZM98.0151 82.3031C98.1833 83.1273 98.6616 83.8546 99.3506 84.3338L100.091 82.9878C99.7041 82.7062 99.4378 82.2878 99.3459 81.817C99.2721 81.3597 99.3601 80.8908 99.5946 80.4918C99.7281 80.2256 99.9221 79.9947 100.161 79.8177C100.4 79.6406 100.677 79.5224 100.969 79.4726C101.688 79.4369 102.403 79.6031 103.033 79.9525C103.663 80.3019 104.183 80.8207 104.536 81.4506C104.65 81.726 104.697 82.0243 104.675 82.3215C104.653 82.6188 104.562 82.9067 104.409 83.1621C104.202 83.5656 103.862 83.8852 103.448 84.0673C103.016 84.2397 102.537 84.2463 102.1 84.0861L101.36 85.4312C102.115 85.7521 102.965 85.77 103.733 85.4811C104.524 85.1597 105.171 84.5603 105.553 83.7951C105.812 83.3676 105.976 82.8889 106.033 82.3919C106.091 81.8948 106.04 81.3912 105.885 80.9156C105.469 79.9272 104.733 79.1079 103.797 78.5888C102.862 78.0698 101.779 77.8811 100.724 78.0531C100.238 78.1724 99.7844 78.396 99.3934 78.7084C99.0025 79.0208 98.6837 79.4145 98.459 79.8626C98.021 80.5941 97.862 81.4601 98.0113 82.3002L98.0151 82.3031ZM100.069 89.3581L101.162 90.2058L102.043 89.0604L95.9119 84.3065L94.9941 85.499L98.3211 88.0789C98.5745 88.2497 98.7881 88.4734 98.9472 88.7349C99.1063 88.9963 99.2071 89.2893 99.2427 89.5935C99.2581 90.2431 99.0293 90.8746 98.6017 91.3625L98.3717 91.6611L99.4979 92.5361C99.5978 92.4292 99.6918 92.317 99.7795 92.1998C100.11 91.8117 100.314 91.3319 100.366 90.8243C100.418 90.3167 100.313 89.8053 100.069 89.3581ZM90.2453 96.2962C90.6003 96.7028 91.0317 97.0351 91.5149 97.2742C91.998 97.5132 92.5233 97.6543 93.0608 97.6893C94.0921 97.6695 95.0774 97.257 95.8171 96.5354C96.5568 95.8138 96.9956 94.8371 97.0447 93.803C96.9611 92.7244 96.504 91.7092 95.7527 90.9334C95.0013 90.1576 94.0032 89.6703 92.9313 89.5558C91.897 89.5662 90.9064 89.9756 90.1647 90.6991C89.423 91.4227 88.9871 92.4049 88.9474 93.4422C88.9662 93.9802 89.0906 94.5092 89.3133 94.9989C89.536 95.4886 89.8527 95.9295 90.2453 96.2962ZM94.6281 92.0209C95.1652 92.5149 95.5095 93.1847 95.5994 93.9104C95.6225 94.2265 95.573 94.5438 95.4547 94.8377C95.3364 95.1316 95.1525 95.3944 94.9171 95.6058C94.701 95.8358 94.4348 96.0125 94.1393 96.122C93.8437 96.2315 93.527 96.2708 93.2138 96.2369C92.5097 96.0813 91.8666 95.7216 91.3643 95.2025C90.862 94.6835 90.5225 94.0278 90.388 93.3169C90.3783 93.003 90.4339 92.6904 90.5513 92.3992C90.6686 92.108 90.8452 91.8446 91.0697 91.6257C91.2941 91.4068 91.5616 91.2372 91.855 91.1279C92.1483 91.0185 92.4612 90.9717 92.7736 90.9904C93.4924 91.1019 94.1483 91.4662 94.6243 92.018L94.6281 92.0209ZM91.8126 103.578L93.0083 102.666L86.542 94.1223L85.3464 95.0341L91.8126 103.578ZM88.9681 105.556L90.2162 104.718L84.2709 95.7998L83.0227 96.6382L88.9681 105.556ZM79.7483 107.422C80.2017 107.248 80.6107 106.975 80.9455 106.622C81.2803 106.269 81.5324 105.846 81.6835 105.383C81.9154 104.342 81.8133 103.255 81.3918 102.276C80.9704 101.297 80.2512 100.477 79.3372 99.933C78.8976 99.7267 78.4176 99.6215 77.9323 99.6251C77.447 99.6287 76.9687 99.7409 76.5321 99.9537C76.0572 100.132 75.6377 100.433 75.316 100.827C74.9943 101.22 74.7819 101.692 74.7002 102.195L74.2469 101.143L72.9245 101.718L77.1722 111.566L78.5499 110.967L76.9629 107.288C77.3784 107.546 77.8525 107.693 78.3406 107.717C78.8286 107.74 79.3147 107.639 79.753 107.422H79.7483ZM79.936 102.843C80.2705 103.508 80.3619 104.27 80.1941 104.996C80.1095 105.301 79.9551 105.582 79.7433 105.816C79.5315 106.051 79.2681 106.232 78.974 106.347C78.6916 106.486 78.381 106.559 78.0661 106.559C77.7512 106.559 77.4405 106.486 77.1581 106.347C76.5281 105.976 76.0461 105.397 75.7944 104.709C75.4617 104.06 75.3715 103.313 75.5401 102.603C75.6281 102.298 75.7856 102.018 76.0004 101.785C76.2151 101.552 76.481 101.372 76.777 101.26C77.0569 101.124 77.3634 101.053 77.6742 101.052C77.985 101.05 78.2922 101.119 78.5733 101.252C79.2052 101.599 79.6886 102.166 79.9322 102.846L79.936 102.843ZM64.4575 107.716C64.5423 108.25 64.7312 108.762 65.0133 109.223C65.2954 109.683 65.6653 110.084 66.1017 110.401C66.9853 110.934 68.0379 111.112 69.0467 110.896C70.0555 110.681 70.9451 110.089 71.5356 109.24C72.0369 108.283 72.1886 107.179 71.9642 106.121C71.7398 105.063 71.1536 104.117 70.3071 103.447C69.4261 102.904 68.3705 102.721 67.3589 102.937C66.3474 103.153 65.4573 103.751 64.8732 104.608C64.6036 105.073 64.428 105.587 64.3567 106.12C64.2853 106.654 64.3196 107.196 64.4575 107.716ZM70.4357 106.44C70.6285 107.145 70.5646 107.896 70.2555 108.558C70.1075 108.838 69.8973 109.08 69.6411 109.266C69.385 109.451 69.0898 109.575 68.7783 109.628C68.4733 109.707 68.1541 109.715 67.8459 109.649C67.5377 109.584 67.2487 109.448 67.0017 109.251C66.4884 108.744 66.1349 108.096 65.9847 107.388C65.8346 106.681 65.8945 105.945 66.1571 105.271C66.3149 104.999 66.5275 104.764 66.7813 104.58C67.0351 104.395 67.3245 104.266 67.6309 104.201C67.9373 104.136 68.2539 104.135 68.5604 104.2C68.867 104.265 69.1566 104.393 69.4108 104.577C69.962 105.056 70.3247 105.717 70.4338 106.441L70.4357 106.44ZM55.2593 105.962C55.3845 106.402 55.6644 107.317 56.0993 108.707L57.1316 111.931L58.6332 111.907L59.5717 108.65C59.8939 107.52 60.1392 106.592 60.3075 105.865C60.594 106.835 60.8793 107.755 61.1634 108.625L62.206 111.848L63.8277 111.822L61.1343 104.088L59.5388 104.114L58.5431 107.552C58.4004 108.046 58.1736 108.884 57.8627 110.065C57.6299 109.265 57.3712 108.435 57.0866 107.576L55.9651 104.173L54.3884 104.198L51.9483 112.016L53.5541 111.99L54.5076 108.733C54.8961 107.331 55.1464 106.407 55.2584 105.963L55.2593 105.962ZM47.9785 109.928L47.7326 111.058L49.1403 111.365L50.7893 103.767L49.3215 103.446L48.3924 107.731C48.347 108.033 48.2403 108.323 48.0788 108.582C47.9174 108.842 47.7047 109.065 47.4539 109.238C47.243 109.376 47.007 109.471 46.7595 109.518C46.512 109.564 46.2578 109.561 46.0114 109.509C45.7884 109.493 45.572 109.426 45.3794 109.313C45.1867 109.199 45.0231 109.042 44.9014 108.853C44.7797 108.665 44.7034 108.451 44.6784 108.228C44.6535 108.005 44.6806 107.78 44.7576 107.569L45.8181 102.681L44.3503 102.359L43.2457 107.454C43.1305 107.806 43.0946 108.179 43.1407 108.546C43.1868 108.914 43.3137 109.266 43.5122 109.578C43.7107 109.89 43.9759 110.154 44.2885 110.351C44.6011 110.548 44.9534 110.672 45.3198 110.715C45.7935 110.83 46.289 110.817 46.7563 110.678C47.2236 110.539 47.6462 110.279 47.9813 109.924L47.9785 109.928Z" fill="#242226"/>
</svg>
