<svg width="16" height="17" viewBox="0 0 16 17" fill="none" xmlns="http://www.w3.org/2000/svg">
<g clip-path="url(#clip0_64_3124)">
<path d="M8.051 2.24939H8.14C8.962 2.25239 13.127 2.28239 14.25 2.58439C14.5895 2.67656 14.8989 2.85621 15.1472 3.1054C15.3955 3.35458 15.574 3.66457 15.665 4.00439C15.766 4.38439 15.837 4.88739 15.885 5.40639L15.895 5.51039L15.917 5.77039L15.925 5.87439C15.99 6.78839 15.998 7.64439 15.999 7.83139V7.90639C15.998 8.10039 15.989 9.01439 15.917 9.96639L15.909 10.0714L15.9 10.1754C15.85 10.7474 15.776 11.3154 15.665 11.7334C15.5743 12.0733 15.3958 12.3835 15.1475 12.6327C14.8991 12.8819 14.5896 13.0615 14.25 13.1534C13.09 13.4654 8.681 13.4874 8.07 13.4884H7.928C7.619 13.4884 6.341 13.4824 5.001 13.4364L4.831 13.4304L4.744 13.4264L4.573 13.4194L4.402 13.4124C3.292 13.3634 2.235 13.2844 1.748 13.1524C1.40849 13.0606 1.09907 12.8812 0.850724 12.6321C0.602384 12.3831 0.423847 12.0732 0.333 11.7334C0.222 11.3164 0.148 10.7474 0.098 10.1754L0.09 10.0704L0.082 9.96639C0.0326476 9.28879 0.00529987 8.60976 0 7.93039L0 7.80739C0.002 7.59239 0.01 6.84939 0.064 6.02939L0.071 5.92639L0.074 5.87439L0.082 5.77039L0.104 5.51039L0.114 5.40639C0.162 4.88739 0.233 4.38339 0.334 4.00439C0.424694 3.66444 0.603162 3.3543 0.851513 3.10507C1.09986 2.85584 1.40937 2.67628 1.749 2.58439C2.236 2.45439 3.293 2.37439 4.403 2.32439L4.573 2.31739L4.745 2.31139L4.831 2.30839L5.002 2.30139C5.95371 2.27076 6.90581 2.25376 7.858 2.25039H8.051V2.24939ZM6.4 5.45939V10.2774L10.557 7.86939L6.4 5.45939Z" fill="#E5E9DC"/>
</g>
<defs>
<clipPath id="clip0_64_3124">
<rect width="16" height="16" fill="white" transform="translate(0 0.250366)"/>
</clipPath>
</defs>
</svg>
