<svg width="30" height="30" viewBox="0 0 30 30" fill="none" xmlns="http://www.w3.org/2000/svg">
<g clip-path="url(#clip0_81_37)">
<path d="M22.5 1.875C22.9973 1.875 23.4742 2.07254 23.8258 2.42417C24.1775 2.77581 24.375 3.25272 24.375 3.75V26.25C24.375 26.7473 24.1775 27.2242 23.8258 27.5758C23.4742 27.9275 22.9973 28.125 22.5 28.125H7.5C7.00272 28.125 6.52581 27.9275 6.17417 27.5758C5.82254 27.2242 5.625 26.7473 5.625 26.25V3.75C5.625 3.25272 5.82254 2.77581 6.17417 2.42417C6.52581 2.07254 7.00272 1.875 7.5 1.875H22.5ZM7.5 0C6.50544 0 5.55161 0.395088 4.84835 1.09835C4.14509 1.80161 3.75 2.75544 3.75 3.75V26.25C3.75 27.2446 4.14509 28.1984 4.84835 28.9016C5.55161 29.6049 6.50544 30 7.5 30H22.5C23.4946 30 24.4484 29.6049 25.1516 28.9016C25.8549 28.1984 26.25 27.2446 26.25 26.25V3.75C26.25 2.75544 25.8549 1.80161 25.1516 1.09835C24.4484 0.395088 23.4946 0 22.5 0L7.5 0Z" fill="#E5E9DC"/>
<path d="M15 26.25C15.4973 26.25 15.9742 26.0525 16.3258 25.7008C16.6775 25.3492 16.875 24.8723 16.875 24.375C16.875 23.8777 16.6775 23.4008 16.3258 23.0492C15.9742 22.6975 15.4973 22.5 15 22.5C14.5027 22.5 14.0258 22.6975 13.6742 23.0492C13.3225 23.4008 13.125 23.8777 13.125 24.375C13.125 24.8723 13.3225 25.3492 13.6742 25.7008C14.0258 26.0525 14.5027 26.25 15 26.25Z" fill="#E5E9DC"/>
</g>
<defs>
<clipPath id="clip0_81_37">
<rect width="30" height="30" fill="white"/>
</clipPath>
</defs>
</svg>
