<svg width="30" height="30" viewBox="0 0 30 30" fill="none" xmlns="http://www.w3.org/2000/svg">
<g clip-path="url(#clip0_81_26)">
<path d="M26.475 19.0557L29.6907 20.6644C30.1032 20.8707 30.1032 21.4594 29.6907 21.6657L15.5007 28.7625C15.3452 28.8401 15.1738 28.8805 15 28.8805C14.8263 28.8805 14.6549 28.8401 14.4994 28.7625L0.309422 21.6657C0.216725 21.6189 0.138821 21.5474 0.0843892 21.459C0.0299576 21.3706 0.00113618 21.2688 0.00113618 21.165C0.00113618 21.0612 0.0299576 20.9595 0.0843892 20.8711C0.138821 20.7827 0.216725 20.7111 0.309422 20.6644L3.52692 19.0557L13.4963 24.0413C14.4432 24.5138 15.5588 24.5138 16.5038 24.0413L26.4732 19.0538L26.475 19.0557ZM14.4994 0.11815C14.6549 0.040568 14.8263 0.000183105 15 0.000183105C15.1738 0.000183105 15.3452 0.040568 15.5007 0.11815L29.6907 7.21315C29.7833 7.26017 29.8611 7.33193 29.9154 7.42046C29.9698 7.50899 29.9985 7.61084 29.9985 7.71471C29.9985 7.81859 29.9698 7.92044 29.9154 8.00897C29.8611 8.0975 29.7833 8.16925 29.6907 8.21628L15.5007 15.3094C15.3452 15.387 15.1738 15.4274 15 15.4274C14.8263 15.4274 14.6549 15.387 14.4994 15.3094L0.309422 8.21628C0.216234 8.16974 0.137853 8.09816 0.0830696 8.00957C0.0282864 7.92098 -0.000732422 7.81888 -0.000732422 7.71471C-0.000732422 7.61055 0.0282864 7.50845 0.0830696 7.41986C0.137853 7.33126 0.216234 7.25969 0.309422 7.21315L14.4994 0.11815Z" fill="#242226"/>
<path d="M26.4749 12.33L29.6905 13.9388C30.103 14.145 30.103 14.7338 29.6905 14.94L15.5005 22.035C15.345 22.1126 15.1736 22.153 14.9999 22.153C14.8261 22.153 14.6547 22.1126 14.4993 22.035L0.309263 14.94C0.216565 14.8933 0.138661 14.8218 0.0842296 14.7334C0.029798 14.645 0.000976562 14.5432 0.000976563 14.4394C0.000976562 14.3356 0.029798 14.2338 0.0842296 14.1454C0.138661 14.057 0.216565 13.9855 0.309263 13.9388L3.52676 12.33L13.4961 17.3156C14.443 17.7881 15.5586 17.7881 16.5036 17.3156L26.4749 12.33Z" fill="#242226"/>
</g>
<defs>
<clipPath id="clip0_81_26">
<rect width="30" height="30" fill="white"/>
</clipPath>
</defs>
</svg>
