<svg width="30" height="30" viewBox="0 0 30 30" fill="none" xmlns="http://www.w3.org/2000/svg">
<g clip-path="url(#clip0_81_26)">
<path d="M26.475 19.0556L29.6907 20.6643C30.1032 20.8706 30.1032 21.4593 29.6907 21.6656L15.5007 28.7625C15.3452 28.84 15.1738 28.8804 15 28.8804C14.8263 28.8804 14.6549 28.84 14.4994 28.7625L0.309422 21.6656C0.216725 21.6189 0.138821 21.5473 0.0843892 21.4589C0.0299576 21.3705 0.00113618 21.2688 0.00113618 21.165C0.00113618 21.0612 0.0299576 20.9594 0.0843892 20.871C0.138821 20.7826 0.216725 20.7111 0.309422 20.6643L3.52692 19.0556L13.4963 24.0412C14.4432 24.5137 15.5588 24.5137 16.5038 24.0412L26.4732 19.0537L26.475 19.0556ZM14.4994 0.118089C14.6549 0.0405069 14.8263 0.00012207 15 0.00012207C15.1738 0.00012207 15.3452 0.0405069 15.5007 0.118089L29.6907 7.21309C29.7833 7.26011 29.8611 7.33187 29.9154 7.4204C29.9698 7.50893 29.9985 7.61078 29.9985 7.71465C29.9985 7.81853 29.9698 7.92038 29.9154 8.00891C29.8611 8.09744 29.7833 8.16919 29.6907 8.21621L15.5007 15.3093C15.3452 15.3869 15.1738 15.4273 15 15.4273C14.8263 15.4273 14.6549 15.3869 14.4994 15.3093L0.309422 8.21621C0.216234 8.16968 0.137853 8.0981 0.0830696 8.00951C0.0282864 7.92092 -0.000732422 7.81881 -0.000732422 7.71465C-0.000732422 7.61049 0.0282864 7.50839 0.0830696 7.4198C0.137853 7.3312 0.216234 7.25963 0.309422 7.21309L14.4994 0.118089Z" fill="#E5E9DC"/>
<path d="M26.4749 12.33L29.6905 13.9387C30.103 14.145 30.103 14.7337 29.6905 14.94L15.5005 22.035C15.345 22.1125 15.1736 22.1529 14.9999 22.1529C14.8261 22.1529 14.6547 22.1125 14.4993 22.035L0.309263 14.94C0.216565 14.8932 0.138661 14.8217 0.0842296 14.7333C0.029798 14.6449 0.000976562 14.5431 0.000976563 14.4393C0.000976562 14.3355 0.029798 14.2338 0.0842296 14.1454C0.138661 14.057 0.216565 13.9854 0.309263 13.9387L3.52676 12.33L13.4961 17.3156C14.443 17.7881 15.5586 17.7881 16.5036 17.3156L26.4749 12.33Z" fill="#E5E9DC"/>
</g>
<defs>
<clipPath id="clip0_81_26">
<rect width="30" height="30" fill="white"/>
</clipPath>
</defs>
</svg>
