<svg width="30" height="30" viewBox="0 0 30 30" fill="none" xmlns="http://www.w3.org/2000/svg">
<path d="M19.6462 3.08812C19.6824 2.97042 19.6951 2.84675 19.6835 2.72416C19.6719 2.60157 19.6362 2.48246 19.5786 2.37364C19.521 2.26482 19.4425 2.16842 19.3476 2.08994C19.2527 2.01146 19.1433 1.95244 19.0256 1.91624C18.9079 1.88005 18.7842 1.86739 18.6616 1.87899C18.539 1.89059 18.4199 1.92622 18.3111 1.98385C18.2023 2.04148 18.1059 2.11998 18.0274 2.21487C17.9489 2.30975 17.8899 2.41917 17.8537 2.53687L10.3537 26.9119C10.2806 27.1496 10.3049 27.4066 10.4213 27.6263C10.5377 27.8461 10.7366 28.0106 10.9743 28.0837C11.212 28.1568 11.469 28.1325 11.6888 28.0161C11.9086 27.8997 12.0731 27.7008 12.1462 27.4631L19.6462 3.08812ZM9.10122 7.77374C9.18852 7.86083 9.25779 7.96428 9.30505 8.07818C9.35232 8.19208 9.37664 8.31418 9.37664 8.43749C9.37664 8.5608 9.35232 8.68291 9.30505 8.7968C9.25779 8.9107 9.18852 9.01416 9.10122 9.10124L3.20059 15L9.10122 20.8987C9.27725 21.0748 9.37615 21.3135 9.37615 21.5625C9.37615 21.8114 9.27725 22.0502 9.10122 22.2262C8.92518 22.4023 8.68642 22.5012 8.43747 22.5012C8.18851 22.5012 7.94975 22.4023 7.77372 22.2262L1.21122 15.6637C1.12391 15.5767 1.05464 15.4732 1.00738 15.3593C0.960119 15.2454 0.935791 15.1233 0.935791 15C0.935791 14.8767 0.960119 14.7546 1.00738 14.6407C1.05464 14.5268 1.12391 14.4233 1.21122 14.3362L7.77372 7.77374C7.8608 7.68643 7.96426 7.61717 8.07815 7.5699C8.19205 7.52264 8.31415 7.49832 8.43747 7.49832C8.56078 7.49832 8.68288 7.52264 8.79678 7.5699C8.91068 7.61717 9.01413 7.68643 9.10122 7.77374ZM20.8987 7.77374C20.8114 7.86083 20.7421 7.96428 20.6949 8.07818C20.6476 8.19208 20.6233 8.31418 20.6233 8.43749C20.6233 8.5608 20.6476 8.68291 20.6949 8.7968C20.7421 8.9107 20.8114 9.01416 20.8987 9.10124L26.7993 15L20.8987 20.8987C20.8116 20.9859 20.7424 21.0894 20.6952 21.2033C20.6481 21.3172 20.6238 21.4392 20.6238 21.5625C20.6238 21.6858 20.6481 21.8078 20.6952 21.9217C20.7424 22.0356 20.8116 22.1391 20.8987 22.2262C20.9859 22.3134 21.0894 22.3826 21.2032 22.4297C21.3171 22.4769 21.4392 22.5012 21.5625 22.5012C21.6857 22.5012 21.8078 22.4769 21.9217 22.4297C22.0356 22.3826 22.1391 22.3134 22.2262 22.2262L28.7887 15.6637C28.876 15.5767 28.9453 15.4732 28.9926 15.3593C29.0398 15.2454 29.0641 15.1233 29.0641 15C29.0641 14.8767 29.0398 14.7546 28.9926 14.6407C28.9453 14.5268 28.876 14.4233 28.7887 14.3362L22.2262 7.77374C22.1391 7.68643 22.0357 7.61717 21.9218 7.5699C21.8079 7.52264 21.6858 7.49832 21.5625 7.49832C21.4392 7.49832 21.3171 7.52264 21.2032 7.5699C21.0893 7.61717 20.9858 7.68643 20.8987 7.77374Z" fill="#242226"/>
</svg>
