<svg width="30" height="30" viewBox="0 0 30 30" fill="none" xmlns="http://www.w3.org/2000/svg">
<path d="M19.6462 3.08806C19.6824 2.97036 19.6951 2.84668 19.6835 2.72409C19.6719 2.60151 19.6362 2.4824 19.5786 2.37358C19.521 2.26476 19.4425 2.16836 19.3476 2.08988C19.2527 2.0114 19.1433 1.95238 19.0256 1.91618C18.9079 1.87998 18.7842 1.86733 18.6616 1.87893C18.539 1.89053 18.4199 1.92616 18.3111 1.98379C18.2023 2.04142 18.1059 2.11992 18.0274 2.21481C17.9489 2.30969 17.8899 2.41911 17.8537 2.53681L10.3537 26.9118C10.2806 27.1495 10.3049 27.4065 10.4213 27.6263C10.5377 27.846 10.7366 28.0106 10.9743 28.0837C11.212 28.1568 11.469 28.1325 11.6888 28.0161C11.9086 27.8997 12.0731 27.7008 12.1462 27.4631L19.6462 3.08806ZM9.10122 7.77368C9.18852 7.86077 9.25779 7.96422 9.30505 8.07812C9.35232 8.19201 9.37664 8.31412 9.37664 8.43743C9.37664 8.56074 9.35232 8.68285 9.30505 8.79674C9.25779 8.91064 9.18852 9.01409 9.10122 9.10118L3.20059 14.9999L9.10122 20.8987C9.27725 21.0747 9.37615 21.3135 9.37615 21.5624C9.37615 21.8114 9.27725 22.0501 9.10122 22.2262C8.92518 22.4022 8.68642 22.5011 8.43747 22.5011C8.18851 22.5011 7.94975 22.4022 7.77372 22.2262L1.21122 15.6637C1.12391 15.5766 1.05464 15.4731 1.00738 15.3592C0.960119 15.2453 0.935791 15.1232 0.935791 14.9999C0.935791 14.8766 0.960119 14.7545 1.00738 14.6406C1.05464 14.5267 1.12391 14.4233 1.21122 14.3362L7.77372 7.77368C7.8608 7.68637 7.96426 7.61711 8.07815 7.56984C8.19205 7.52258 8.31415 7.49825 8.43747 7.49825C8.56078 7.49825 8.68288 7.52258 8.79678 7.56984C8.91068 7.61711 9.01413 7.68637 9.10122 7.77368ZM20.8987 7.77368C20.8114 7.86077 20.7421 7.96422 20.6949 8.07812C20.6476 8.19201 20.6233 8.31412 20.6233 8.43743C20.6233 8.56074 20.6476 8.68285 20.6949 8.79674C20.7421 8.91064 20.8114 9.01409 20.8987 9.10118L26.7993 14.9999L20.8987 20.8987C20.8116 20.9858 20.7424 21.0893 20.6952 21.2032C20.6481 21.3171 20.6238 21.4392 20.6238 21.5624C20.6238 21.6857 20.6481 21.8078 20.6952 21.9217C20.7424 22.0355 20.8116 22.139 20.8987 22.2262C20.9859 22.3133 21.0894 22.3825 21.2032 22.4297C21.3171 22.4768 21.4392 22.5011 21.5625 22.5011C21.6857 22.5011 21.8078 22.4768 21.9217 22.4297C22.0356 22.3825 22.1391 22.3133 22.2262 22.2262L28.7887 15.6637C28.876 15.5766 28.9453 15.4731 28.9926 15.3592C29.0398 15.2453 29.0641 15.1232 29.0641 14.9999C29.0641 14.8766 29.0398 14.7545 28.9926 14.6406C28.9453 14.5267 28.876 14.4233 28.7887 14.3362L22.2262 7.77368C22.1391 7.68637 22.0357 7.61711 21.9218 7.56984C21.8079 7.52258 21.6858 7.49825 21.5625 7.49825C21.4392 7.49825 21.3171 7.52258 21.2032 7.56984C21.0893 7.61711 20.9858 7.68637 20.8987 7.77368Z" fill="#E5E9DC"/>
</svg>
