<svg width="25" height="25" viewBox="0 0 25 25" fill="none" xmlns="http://www.w3.org/2000/svg">
<g clip-path="url(#clip0_130_2547)">
<path d="M12.8682 24.8474L20.6807 17.0349C20.8841 16.8314 20.8841 16.5019 20.6807 16.2984C20.4772 16.095 20.1476 16.095 19.9442 16.2984L13.0207 23.2219L13.0207 0.52085C13.0207 0.232959 12.7878 0 12.4999 0C12.212 0 11.979 0.232959 11.979 0.52085L11.979 23.2219L5.05565 16.2984C4.85218 16.095 4.52259 16.095 4.31918 16.2984C4.21747 16.4001 4.16659 16.5334 4.16659 16.6667C4.16659 16.8 4.21747 16.9332 4.31918 17.035L12.1317 24.8475C12.3351 25.0509 12.6647 25.0509 12.8682 24.8474Z" fill="#E5E9DC"/>
</g>
<defs>
<clipPath id="clip0_130_2547">
<rect width="25" height="25" fill="white" transform="matrix(0 1 -1 0 25 0)"/>
</clipPath>
</defs>
</svg>
