<svg width="18" height="18" viewBox="0 0 18 18" fill="none" xmlns="http://www.w3.org/2000/svg">
<path d="M16.7366 5.66162H16.2436V11.0802C16.2436 11.9239 15.7524 12.6868 14.7676 12.6868H5.11914V12.9444C5.11914 13.6903 5.96753 14.4432 6.83875 14.4432H14.2155L17.0376 16.1025L16.6283 14.4432H16.7366C17.6073 14.4432 18.0001 13.6921 18.0001 12.9444V6.94792C18.0001 6.20202 17.6073 5.66162 16.7366 5.66162Z" fill="#E5E9DC"/>
<path d="M13.3271 1.89697H2.12068C1.1347 1.89697 0 2.77285 0 3.61711V10.4087C0 11.1862 0.96139 11.7477 1.88355 11.8343L1.28341 14.1124L5.12897 11.8501H13.3271C14.3131 11.8501 15.223 11.2524 15.223 10.4087V4.91395V3.61711C15.223 2.77285 14.3125 1.89697 13.3271 1.89697ZM3.83034 7.62999C3.27118 7.62999 2.81801 7.17683 2.81801 6.6177C2.81801 6.05857 3.27118 5.6054 3.83034 5.6054C4.3889 5.6054 4.84266 6.05857 4.84266 6.6177C4.84266 7.17683 4.3889 7.62999 3.83034 7.62999ZM7.61149 7.62999C7.05234 7.62999 6.59916 7.17683 6.59916 6.6177C6.59916 6.05857 7.05234 5.6054 7.61149 5.6054C8.17064 5.6054 8.62382 6.05857 8.62382 6.6177C8.62382 7.17683 8.17064 7.62999 7.61149 7.62999ZM11.3932 7.62999C10.8341 7.62999 10.3803 7.17683 10.3803 6.6177C10.3803 6.05857 10.8341 5.6054 11.3932 5.6054C11.9512 5.6054 12.4056 6.05857 12.4056 6.6177C12.4056 7.17683 11.9512 7.62999 11.3932 7.62999Z" fill="#E5E9DC"/>
</svg>
