<svg width="50" height="50" viewBox="0 0 50 50" fill="none" xmlns="http://www.w3.org/2000/svg">
<g clip-path="url(#clip0_171_198)">
<path d="M47.7205 31.2179L49.151 29.7878C50.0513 28.8872 50.0513 27.4219 49.151 26.5213C48.7146 26.0853 48.1348 25.8449 47.5176 25.8449C47.0545 25.8449 46.612 25.9804 46.2358 26.2325L45.9345 25.2208L47.4829 23.6721C48.3835 22.7714 48.3835 21.3062 47.4829 20.4059C46.6539 19.5766 45.347 19.5129 44.4418 20.2106L42.6069 14.0506C43.3397 13.3449 44.0416 12.6583 44.7031 11.9968C46.6093 10.0902 48.1592 8.07262 49.0675 6.3148C50.6021 3.34391 49.9598 1.75585 49.1507 0.946751C48.3419 0.137653 46.7539 -0.504362 43.7826 1.03029C42.0252 1.93819 40.0072 3.48811 38.101 5.39469C37.4395 6.05616 36.7525 6.75769 36.0471 7.49049L29.8868 5.65562C30.5845 4.75077 30.5208 3.44386 29.6919 2.61454C28.7912 1.71427 27.326 1.71389 26.4257 2.61454L24.8769 4.16331L23.8649 3.86195C24.1171 3.48544 24.2525 3.04293 24.2525 2.57983C24.2525 1.96299 24.0121 1.38277 23.5761 0.946751C22.6759 0.0460997 21.2102 0.0460997 20.31 0.946751L18.8798 2.37688L11.5903 0.205554C11.3305 0.128497 11.0498 0.199451 10.8587 0.390949L8.98222 2.2674C8.66712 2.58211 8.7087 3.12037 9.06805 3.3832L27.4603 16.8457C23.3133 21.5214 19.3185 26.2028 16.4983 29.5475L11.0883 27.4666C10.8163 27.362 10.5085 27.4273 10.3025 27.6333L8.07851 29.8572C7.79089 30.1453 7.79089 30.6118 8.07851 30.8994L19.198 42.0189C19.4818 42.3031 19.9564 42.3031 20.2405 42.0189L22.4641 39.7953C22.6701 39.5893 22.7357 39.2811 22.6308 39.0091L20.5503 33.5995C23.895 30.7793 28.5761 26.7845 33.2521 22.6372L34.7131 24.6338C34.9725 24.9882 35.4986 25.0339 35.8167 24.7318C36.0819 24.48 36.1185 24.0577 35.903 23.7633L34.3584 21.653C36.8036 19.4706 39.2183 17.2687 41.4091 15.1939L48.3538 38.5075L47.3959 39.465L37.8511 26.4248C37.6108 26.0963 37.1496 26.025 36.8212 26.2653C36.4923 26.506 36.421 26.9672 36.6617 27.2957L46.7146 41.0297C46.9774 41.3891 47.5157 41.4307 47.8304 41.1156L49.7068 39.2391C49.8983 39.048 49.9693 38.7669 49.8922 38.5075L47.7205 31.2179ZM27.4683 3.6571C27.7902 3.33514 28.3277 3.33514 28.6497 3.6571C28.9755 3.98287 28.9755 4.51274 28.6497 4.83851L28.3041 5.18412L26.4833 4.64167L27.4683 3.6571ZM21.3525 1.98931C21.6779 1.66353 22.2082 1.66353 22.5339 1.98931C22.8597 2.31508 22.8597 2.84495 22.5339 3.17072L22.3066 3.3977L20.4862 2.85563L21.3525 1.98931ZM10.6325 2.70151L11.5903 1.74402L34.9039 8.68831C32.8291 10.8795 30.6272 13.2942 28.4444 15.7394L10.6325 2.70151ZM11.0063 29.0146L15.4943 30.7407C14.3686 32.0812 13.5053 33.1184 12.996 33.7322L9.64216 30.3783L11.0063 29.0146ZM14.0432 34.7794C16.6128 31.6791 30.195 15.3854 39.1435 6.43687C40.9189 4.66113 42.8568 3.16805 44.4593 2.34026C45.6625 1.71847 47.2723 1.15313 48.1085 1.98931C48.9447 2.82549 48.3789 4.4353 47.7575 5.63845C46.9297 7.24101 45.4363 9.1785 43.6605 10.9542C34.7128 19.902 18.4186 33.4846 15.3184 36.0546L14.0432 34.7794ZM21.0832 39.0915L19.7195 40.4552L16.3656 37.1014C16.979 36.5925 18.0166 35.7292 19.3571 34.6035L21.0832 39.0915ZM46.9271 27.5638C47.2528 27.2381 47.7827 27.2381 48.1085 27.5638C48.4343 27.8896 48.4343 28.4195 48.1085 28.7453L47.2422 29.6116L46.6997 27.7912L46.9271 27.5638ZM45.2593 21.4481C45.5847 21.1223 46.1149 21.1227 46.4407 21.4481C46.7626 21.7701 46.7626 22.3076 46.4407 22.6295L45.4557 23.6145L44.9133 21.7937L45.2593 21.4481Z" fill="#242226"/>
<path d="M44.2463 42.5492L37.9563 48.8393C37.6881 49.1078 37.6702 49.5511 37.917 49.8395C38.1928 50.1615 38.699 50.1817 38.9988 49.8818L45.2889 43.5918C45.5769 43.3038 45.5769 42.8372 45.2889 42.5492C45.0013 42.2616 44.5344 42.2616 44.2463 42.5492Z" fill="#242226"/>
<path d="M42.1438 40.4465C42.4318 40.1589 42.4318 39.692 42.1438 39.4044C41.8561 39.1164 41.3892 39.1164 41.1016 39.4044L37.1701 43.3354C36.902 43.604 36.884 44.0472 37.1309 44.3356C37.4067 44.6576 37.9129 44.6778 38.2127 44.378L42.1438 40.4465Z" fill="#242226"/>
<path d="M39.7851 36.5154C40.0731 36.2274 40.0731 35.7605 39.7851 35.4728C39.4971 35.1848 39.0306 35.1848 38.7426 35.4728L35.9906 38.2248C35.7225 38.4929 35.7045 38.9366 35.9517 39.225C36.2272 39.5469 36.7334 39.5672 37.0332 39.2673L39.7851 36.5154Z" fill="#242226"/>
<path d="M7.54863 5.20168C7.26062 4.91405 6.7937 4.91405 6.50607 5.20168L0.216008 11.4921C-0.0720025 11.7798 -0.0720025 12.2467 0.216008 12.5343C0.499821 12.8181 0.97437 12.8181 1.25857 12.5343L7.54863 6.24424C7.83626 5.95623 7.83626 5.48969 7.54863 5.20168Z" fill="#242226"/>
<path d="M10.6935 8.34687C10.4054 8.05886 9.9389 8.05886 9.65128 8.34687L5.71984 12.2783C5.45129 12.5465 5.43374 12.9897 5.68055 13.2781C5.95635 13.6001 6.46218 13.6203 6.76202 13.3205L10.6935 9.38943C10.9815 9.10141 10.9815 8.6345 10.6935 8.34687Z" fill="#242226"/>
<path d="M10.8302 14.5001C11.1144 14.7839 11.5886 14.7839 11.8728 14.5001L14.6247 11.7481C14.9123 11.4601 14.9123 10.9936 14.6247 10.7056C14.3367 10.418 13.8702 10.418 13.5821 10.7056L10.8302 13.4575C10.5426 13.7455 10.5426 14.2121 10.8302 14.5001Z" fill="#242226"/>
</g>
<defs>
<clipPath id="clip0_171_198">
<rect width="50" height="50" fill="white"/>
</clipPath>
</defs>
</svg>
