<svg width="50" height="50" viewBox="0 0 50 50" fill="none" xmlns="http://www.w3.org/2000/svg">
<g clip-path="url(#clip0_171_282)">
<path d="M39.6706 28.7253C38.0938 28.6877 36.5921 28.9975 35.2357 29.5824L33.2953 25.8178L33.9824 26.1007C34.3784 26.2638 34.7899 26.3409 35.1964 26.3409C36.4455 26.3408 37.6431 25.6113 38.167 24.4043C38.2475 24.2188 38.3088 24.028 38.3521 23.8342H39.3966C39.8029 23.8342 40.1572 23.5211 40.1694 23.115C40.1821 22.6947 39.8451 22.35 39.4277 22.35H38.3248C38.2885 22.2095 38.2432 22.0701 38.1876 21.9329C37.8554 21.1137 37.1986 20.4519 36.386 20.1172L30.881 17.8507L30.9939 12.9115C30.9941 12.9044 30.9938 12.8973 30.9939 12.8901C31.8646 13.3423 32.8521 13.5994 33.8992 13.5994C37.2377 13.5994 39.9785 10.9998 40.2085 7.71864C40.5395 7.53993 40.8304 7.28622 41.0525 6.9702C41.5112 6.31766 41.6241 5.48045 41.3544 4.73075C40.8932 3.44822 40.1421 2.40535 39.1221 1.63113C37.7877 0.618433 36.0304 0.104858 33.8992 0.104858C32.4743 0.104858 31.0677 0.541578 29.7086 1.40457C29.3433 1.6365 29.2508 2.12957 29.5095 2.47644C29.7433 2.79012 30.1781 2.86414 30.5086 2.65486C31.6258 1.94705 32.7636 1.58885 33.8992 1.58885C37.0342 1.58885 39.068 2.80271 39.9449 5.19686C40.0583 5.50643 40.0244 5.85839 39.8317 6.12587C39.6465 6.38309 39.3591 6.53046 39.0415 6.53046H27.4571C27.2532 6.53046 27.159 6.38915 27.128 6.32841C27.0975 6.26884 27.0393 6.11288 27.1561 5.95155C27.5 5.47635 27.8598 5.03055 28.2311 4.6201C28.4967 4.32635 28.4881 3.87733 28.2085 3.59686L28.2084 3.59676C27.9092 3.29676 27.4187 3.30594 27.1345 3.62C26.7257 4.07176 26.3302 4.56112 25.9538 5.08153C25.5457 5.64579 25.4891 6.38221 25.8064 7.00341C25.8593 7.10702 25.9215 7.20341 25.9907 7.29315C24.9127 7.73632 23.9284 8.38984 23.0815 9.23603L18.4037 13.9139C18.3371 13.9805 18.2717 14.049 18.2089 14.1185C18.2061 14.1215 18.2032 14.1247 18.2004 14.1278C16.2678 16.2794 16.3566 19.5659 18.4037 21.6129L18.7234 21.9326H14.2383C13.832 21.9326 13.4777 22.2457 13.4655 22.6519C13.4528 23.0721 13.7898 23.4168 14.2072 23.4168H16.039L17.8776 26.6441L15.6885 30.0354C14.0643 29.1381 12.181 28.6546 10.1814 28.7296C4.58156 28.94 0.0803743 33.5528 0.00107731 39.1562C-0.082419 45.063 4.69835 49.895 10.5865 49.895C16.1744 49.895 20.7645 45.5428 21.1464 40.0502H25.9461C26.213 40.0502 26.4593 39.9069 26.5913 39.6749L32.977 28.4395L33.9174 30.2638C30.7757 32.1799 28.7051 35.6862 28.8328 39.6556C29.0112 45.2034 33.512 49.7072 39.0597 49.889C45.0886 50.0867 50.0507 45.2137 49.9996 39.2168C49.9513 33.5315 45.3545 28.8609 39.6706 28.7253ZM33.244 8.01474H35.6185V8.64687C35.6185 9.05663 35.9508 9.38896 36.3606 9.38896C36.7705 9.38896 37.1027 9.05673 37.1027 8.64687V8.01474H38.6849C38.3267 10.334 36.3173 12.1153 33.8993 12.1153C33.6769 12.1153 33.4586 12.0989 33.2441 12.0698V8.01474H33.244ZM31.7599 8.01474V11.6157C30.3721 10.9293 29.3579 9.59765 29.1134 8.01474H31.7599ZM24.1308 10.2857C25.1169 9.30048 26.3253 8.62763 27.6592 8.31171C27.7345 8.76523 27.8585 9.20243 28.0252 9.61835C27.9678 9.61386 27.9102 9.61064 27.852 9.60927C26.0779 9.56415 24.5927 10.974 24.548 12.7524L24.3969 19.211L19.8013 14.6155L24.1308 10.2857ZM18.8398 15.7527L25.0648 21.9778C25.2183 22.173 25.3966 22.3506 25.5956 22.5085L26.5433 23.4563L23.8601 24.9707L19.4532 20.5639C18.1533 19.2639 17.9387 17.277 18.8398 15.7527ZM17.7473 23.417H19.865C19.9662 23.417 20.0625 23.3966 20.1505 23.3599L22.9101 26.1195H19.287L17.7473 23.417ZM22.5693 27.6037L21.8569 30.6306L20.1325 27.6037H22.5693ZM9.9634 38.9058C9.81604 39.134 9.8053 39.4246 9.93518 39.6632C10.0651 39.9019 10.3151 40.0502 10.5868 40.0502H17.2479C16.8776 43.3987 14.032 46.012 10.5865 46.012C6.89015 46.012 3.88312 43.0048 3.88312 39.3086C3.88312 35.6124 6.89025 32.6053 10.5865 32.6053C11.66 32.6053 12.6743 32.8604 13.5748 33.3109L9.9634 38.9058ZM11.9491 38.5662L14.821 34.1166C16.1459 35.1993 17.0497 36.7777 17.2478 38.5662H11.9491ZM10.5865 48.4109C5.5674 48.4109 1.48409 44.3277 1.48409 39.3085C1.48409 34.2895 5.5674 30.2062 10.5865 30.2062C12.139 30.2062 13.6017 30.5973 14.882 31.2855L14.3833 32.0581C13.2476 31.461 11.9563 31.1211 10.5865 31.1211C6.07179 31.1211 2.39903 34.7941 2.39903 39.3085C2.39903 43.8231 6.07199 47.496 10.5865 47.496C14.8509 47.496 18.3625 44.2183 18.7388 40.0501H19.6583C19.2796 44.7238 15.3557 48.4109 10.5865 48.4109ZM18.7387 38.5661V38.5662C18.53 36.2564 17.3582 34.2215 15.6288 32.8652L16.1276 32.0924C18.1073 33.6162 19.445 35.9345 19.6583 38.5661H18.7387ZM21.1462 38.5661C20.9267 35.4128 19.3206 32.6356 16.9345 30.842L18.7059 28.0979L21.3575 32.7522L21.0564 34.0313C20.8194 35.0409 21.1154 36.0803 21.8486 36.8121C22.261 37.2232 22.7803 37.5022 23.3499 37.6189C23.5423 37.6583 23.7349 37.6775 23.9254 37.6775C24.0032 37.6775 24.0805 37.6735 24.1574 37.6673L24.6693 38.5661H21.1462ZM23.6484 36.1652C23.363 36.1067 23.1031 35.967 22.8967 35.7613C22.5304 35.3957 22.3827 34.8757 22.5011 34.3708L24.2326 27.0138C24.2328 27.0126 24.2332 27.0116 24.2334 27.0105L24.3817 26.3804L27.5427 24.5963C27.6717 24.8869 27.705 25.215 27.6291 25.537L27.355 26.702C27.3541 26.7063 27.3529 26.7104 27.352 26.7148L25.403 34.9976C25.2138 35.8013 24.427 36.325 23.6484 36.1652ZM25.9455 37.8077L25.5796 37.1655C26.1952 36.7513 26.6654 36.1113 26.8475 35.3374L28.6673 27.6036H31.745L25.9455 37.8077ZM29.0167 26.1197L29.0737 25.8774C29.2242 25.2391 29.1604 24.5887 28.9079 24.0112L31.176 24.945L31.7814 26.1197H29.0167ZM32.0052 23.6815C32.0032 23.6806 32.0011 23.6798 31.9991 23.679L26.9409 21.5963C26.8358 21.553 26.7348 21.4994 26.6408 21.437C26.1392 21.1041 25.849 20.546 25.8641 19.9426L26.0314 12.7884C26.0551 11.8442 26.8308 11.0923 27.7702 11.0923C27.7849 11.0923 27.7997 11.0924 27.8145 11.0928C28.7735 11.1169 29.5341 11.9167 29.5101 12.8758C29.5101 12.8764 29.5101 12.8769 29.5101 12.8774L29.3855 18.3259C29.3785 18.6327 29.561 18.9122 29.8449 19.0289L35.8208 21.4895C36.2199 21.6538 36.5499 21.9633 36.7468 22.35H35.2721C34.8624 22.35 34.5301 22.6822 34.5301 23.0921C34.5301 23.502 34.8623 23.8342 35.2721 23.8342H36.7953C36.4133 24.6825 35.4106 25.0836 34.5475 24.7284L32.0052 23.6815ZM39.4137 48.4109C34.3946 48.4109 30.3113 44.3276 30.3113 39.3085C30.3113 36.056 32.0264 33.197 34.5994 31.5871L35.0208 32.4048C32.7417 33.86 31.226 36.4099 31.226 39.3087C31.226 43.8234 34.899 47.4962 39.4135 47.4962C40.4462 47.4962 41.4533 47.3062 42.4069 46.9314C42.7884 46.7815 42.9761 46.3508 42.8263 45.9694C42.6764 45.588 42.2455 45.4002 41.8643 45.5501C41.0842 45.8566 40.2598 46.0119 39.4136 46.0119C35.7173 46.0119 32.7102 43.0047 32.7102 39.3085C32.7102 36.9834 33.9006 34.9318 35.7034 33.729L38.7542 39.6481C38.8858 39.9037 39.1454 40.0502 39.4144 40.0502C39.5288 40.0502 39.6451 40.0236 39.7538 39.9676C40.1181 39.7799 40.2611 39.3324 40.0733 38.968L37.0219 33.0477C37.7652 32.7627 38.5712 32.605 39.4136 32.605C43.1099 32.605 46.1169 35.6122 46.1169 39.3083C46.1169 41.1989 45.3123 43.0113 43.9094 44.2806C43.6055 44.5555 43.582 45.0249 43.8569 45.3288C44.132 45.6327 44.6012 45.6561 44.9051 45.3811C46.6184 43.8309 47.601 41.6174 47.601 39.3083C47.601 34.7938 43.928 31.1209 39.4136 31.1209C38.3264 31.1209 37.2888 31.3358 36.3387 31.7223L35.9174 30.9047C36.9944 30.4549 38.1754 30.206 39.4136 30.206C44.4327 30.206 48.5159 34.2893 48.5159 39.3083C48.516 44.3277 44.4327 48.4109 39.4137 48.4109Z" fill="#242226"/>
</g>
<defs>
<clipPath id="clip0_171_282">
<rect width="50" height="50" fill="white"/>
</clipPath>
</defs>
</svg>
