<svg width="51" height="50" viewBox="0 0 51 50" fill="none" xmlns="http://www.w3.org/2000/svg">
<g clip-path="url(#clip0_171_359)">
<path d="M50.3438 23.1816L36.259 0.297058C36.1454 0.113606 35.9458 0.00121895 35.7298 0C35.7291 0 35.7279 0 35.7273 0C35.5127 0 35.3129 0.110437 35.1987 0.29267L25.5438 15.685L16.0731 0.297058C15.9595 0.113606 15.7598 0.00121895 15.5438 0C15.5432 0 15.542 0 15.5414 0C15.3267 0 15.1269 0.110437 15.0127 0.29267L0.659579 23.1766C0.476127 23.4687 0.564745 23.8538 0.856196 24.0366C0.959197 24.1014 1.07402 24.132 1.18702 24.132C1.39485 24.132 1.59768 24.0284 1.71629 23.8394L8.30874 13.3295L10.153 15.9745C10.387 16.3096 10.9431 16.3096 11.1772 15.9745L13.0351 13.3108L14.8912 15.9745C15.124 16.3096 15.6825 16.3096 15.9154 15.9745L17.7689 13.3114L19.6244 15.9745C19.741 16.1417 19.932 16.2415 20.1361 16.2415C20.3401 16.2415 20.5318 16.1417 20.6478 15.9739L22.5638 13.2216L24.8049 16.8632L20.8456 23.1754C20.6622 23.4675 20.7508 23.8525 21.0423 24.0354C21.3349 24.2182 21.72 24.1308 21.9022 23.8382L28.4947 13.3282L30.3389 15.9732C30.573 16.3083 31.1303 16.3083 31.3631 15.9732L33.2204 13.3096L35.0765 15.9732C35.3093 16.3083 35.8679 16.3083 36.1007 15.9732L37.9548 13.3102L39.8097 15.9732C39.9264 16.1411 40.1174 16.2409 40.3214 16.2409C40.5255 16.2409 40.7171 16.1411 40.8331 15.9732L42.7498 13.221L49.2817 23.8339C49.3991 24.0267 49.6037 24.1322 49.8134 24.1322C49.925 24.1322 50.0374 24.1022 50.1398 24.0398C50.433 23.8588 50.5242 23.475 50.3438 23.1816ZM20.1354 14.526L18.2799 11.8629C18.0471 11.5285 17.4885 11.5279 17.2557 11.8629L15.4022 14.526L13.5461 11.8629C13.4294 11.6957 13.2384 11.5959 13.0344 11.5959C12.8303 11.5959 12.6393 11.6957 12.5226 11.8629L10.6647 14.5272L9.02877 12.1812L15.5369 1.80673L21.8497 12.0632L20.1354 14.526ZM40.3207 14.526L38.4658 11.8629C38.233 11.5279 37.6745 11.5279 37.4417 11.8629L35.5875 14.526L33.7314 11.8623C33.6148 11.6951 33.4237 11.5953 33.2197 11.5953C33.0156 11.5953 32.824 11.6951 32.708 11.8623L30.8507 14.5266L29.215 12.1806L35.7224 1.80612L42.0353 12.0626L40.3207 14.526Z" fill="#242226"/>
<path d="M48.0545 33.4089C48.1762 33.5355 48.3397 33.5993 48.5032 33.5993C48.6592 33.5993 48.8159 33.5412 48.9363 33.4239C49.1841 33.1842 49.1909 32.7891 48.9513 32.5413L44.826 28.2712V25.675L48.0557 29.0171C48.1774 29.1438 48.341 29.2075 48.5044 29.2075C48.6604 29.2075 48.8171 29.1495 48.9375 29.0321C49.1853 28.7924 49.1921 28.3974 48.9525 28.1496L44.6512 23.6978C44.65 23.6966 44.6488 23.6966 44.6474 23.6953C44.5344 23.5799 44.3772 23.5074 44.2024 23.5074C44.0276 23.5074 43.8703 23.5799 43.7573 23.6953C43.7561 23.6965 43.7549 23.6965 43.7536 23.6978L39.4522 28.1496C39.2126 28.3974 39.2194 28.7924 39.4672 29.0321C39.7144 29.2717 40.1107 29.2655 40.3492 29.0171L43.5777 25.6757V28.272L39.4524 32.5421C39.2127 32.7899 39.2195 33.1849 39.4674 33.4246C39.7146 33.6642 40.1108 33.658 40.3493 33.4096L43.5778 30.0682V32.6644L39.4525 36.9352C39.2128 37.183 39.2197 37.578 39.4675 37.8177C39.7147 38.0573 40.111 38.0505 40.3494 37.8027L43.5779 34.4613V42.6002C43.5779 42.9447 43.8569 43.2243 44.202 43.2243C44.5471 43.2243 44.8261 42.9447 44.8261 42.6002V34.4607L48.0546 37.8021C48.1763 37.9287 48.3399 37.9925 48.5033 37.9925C48.6593 37.9925 48.816 37.9345 48.9364 37.8171C49.1842 37.5774 49.1911 37.1824 48.9514 36.9345L44.8261 32.6638V30.0676L48.0545 33.4089Z" fill="#242226"/>
<path d="M11.8564 43.4525L7.51831 38.9622V36.1487L10.9597 39.7105C11.0813 39.8371 11.2449 39.9009 11.4083 39.9009C11.5644 39.9009 11.721 39.8429 11.8414 39.7255C12.0893 39.4858 12.0961 39.0908 11.8564 38.8429L7.51831 34.3525V31.539L10.9597 35.1008C11.0813 35.2274 11.2449 35.2912 11.4083 35.2912C11.5644 35.2912 11.721 35.2331 11.8414 35.1158C12.0893 34.8761 12.0961 34.4811 11.8564 34.2332L7.3429 29.5613C7.34168 29.56 7.34047 29.56 7.33912 29.5588C7.22613 29.4434 7.06888 29.371 6.89409 29.371C6.71929 29.371 6.56265 29.4434 6.44905 29.5588C6.44783 29.56 6.44661 29.56 6.44527 29.5613L1.93174 34.2332C1.69209 34.4811 1.69892 34.8761 1.94673 35.1158C2.19394 35.3554 2.59022 35.3486 2.82864 35.1008L6.26998 31.539V34.3525L1.93186 38.8428C1.69222 39.0906 1.69904 39.4857 1.94685 39.7253C2.19406 39.965 2.59034 39.9582 2.82876 39.7104L6.27011 36.1486V38.962L1.93198 43.4524C1.69234 43.7002 1.69916 44.0953 1.94637 44.3349C2.19418 44.5746 2.59046 44.5684 2.82889 44.3199L6.27023 40.7582V49.3758C6.27023 49.7202 6.54924 49.9999 6.89433 49.9999C7.23941 49.9999 7.51843 49.7202 7.51843 49.3758V40.7582L10.9598 44.3199C11.0814 44.4466 11.245 44.5103 11.4085 44.5103C11.5645 44.5103 11.7211 44.4523 11.8422 44.3349C12.0893 44.0953 12.0961 43.7003 11.8564 43.4525Z" fill="#242226"/>
<path d="M29.0631 23.7166C28.718 23.7166 28.439 23.9962 28.439 24.3407V24.4861C28.439 24.7744 28.3822 25.0559 28.2711 25.3212C28.1375 25.6388 28.2867 26.0045 28.605 26.1381C28.6842 26.1705 28.7654 26.1868 28.8465 26.1868C29.0905 26.1868 29.322 26.0426 29.4219 25.8035C29.5979 25.3847 29.6872 24.941 29.6872 24.4861V24.3407C29.6872 23.9962 29.4083 23.7166 29.0631 23.7166Z" fill="#242226"/>
<path d="M21.5972 32.0489C21.0049 31.7855 20.565 31.2793 20.3884 30.6609C20.2942 30.3288 19.9465 30.1378 19.6177 30.2314C19.2862 30.3256 19.0934 30.6707 19.1882 31.0022C19.4653 31.977 20.1588 32.7746 21.0893 33.189C21.1723 33.2258 21.2585 33.2432 21.3427 33.2432C21.5818 33.2432 21.8102 33.1052 21.9132 32.8725C22.0534 32.5581 21.9117 32.1887 21.5972 32.0489Z" fill="#242226"/>
<path d="M23.2174 43.759H20.7716C20.4265 43.759 20.1475 44.0381 20.1475 44.3831C20.1475 44.7276 20.4265 45.0072 20.7716 45.0072H23.2174C23.5625 45.0072 23.8415 44.7276 23.8415 44.3831C23.8415 44.0387 23.5626 43.759 23.2174 43.759Z" fill="#242226"/>
<path d="M22.1486 26.6698C21.1395 26.7684 20.2307 27.3051 19.6554 28.1421C19.4607 28.4261 19.5324 28.8148 19.8164 29.0102C19.9244 29.0844 20.0473 29.12 20.1691 29.12C20.3675 29.12 20.5629 29.0258 20.684 28.8492C21.0502 28.3162 21.6283 27.9748 22.2704 27.9124C22.6137 27.8788 22.8639 27.5735 22.8303 27.2309C22.7964 26.8882 22.4975 26.6374 22.1486 26.6698Z" fill="#242226"/>
<path d="M18.3366 43.7577C17.6907 43.7477 17.086 43.4544 16.6777 42.9545C16.4599 42.6875 16.0668 42.6469 15.8002 42.8653C15.5324 43.0831 15.4932 43.4762 15.711 43.7434C16.3513 44.5292 17.3012 44.9892 18.3154 45.006C18.3192 45.006 18.3228 45.006 18.326 45.006C18.6661 45.006 18.9445 44.7333 18.9501 44.3925C18.9557 44.0478 18.6811 43.7639 18.3366 43.7577Z" fill="#242226"/>
<path d="M31.0684 34.0965C30.6041 33.1934 29.7697 32.5469 28.7799 32.3222C28.4384 32.2448 28.1083 32.4564 28.0322 32.7928C27.956 33.1292 28.167 33.4631 28.5027 33.5392C29.1324 33.6821 29.6623 34.0935 29.9575 34.667C30.0685 34.8823 30.2864 35.0059 30.5136 35.0059C30.609 35.0059 30.707 34.9835 30.7982 34.9366C31.1046 34.7793 31.2257 34.403 31.0684 34.0965Z" fill="#242226"/>
<path d="M21.735 38.0535H19.2891C18.9441 38.0535 18.665 38.3331 18.665 38.6776C18.665 39.022 18.9441 39.3017 19.2891 39.3017H21.735C22.08 39.3017 22.3591 39.022 22.3591 38.6776C22.3591 38.333 22.08 38.0535 21.735 38.0535Z" fill="#242226"/>
<path d="M17.451 38.7594C17.2719 38.4648 16.8887 38.3711 16.5934 38.5491C15.7209 39.0778 15.1336 39.9558 14.9826 40.9575C14.9314 41.2983 15.1661 41.6166 15.5069 41.6678C15.5387 41.6728 15.5705 41.6746 15.6005 41.6746C15.9038 41.6746 16.1703 41.453 16.2172 41.1435C16.312 40.5094 16.6852 39.9527 17.2407 39.6169C17.5353 39.4383 17.6295 39.0545 17.451 38.7594Z" fill="#242226"/>
<path d="M26.2003 32.2373H23.7545C23.4094 32.2373 23.1304 32.5163 23.1304 32.8614C23.1304 33.2059 23.4094 33.4855 23.7545 33.4855H26.2003C26.5454 33.4855 26.8244 33.2059 26.8244 32.8614C26.8244 32.5169 26.5454 32.2373 26.2003 32.2373Z" fill="#242226"/>
<path d="M28.1101 43.759H25.6637C25.3186 43.759 25.0396 44.0381 25.0396 44.3831C25.0396 44.7276 25.3186 45.0072 25.6637 45.0072H28.1101C28.4552 45.0072 28.7342 44.7276 28.7342 44.3831C28.7342 44.0387 28.4552 43.759 28.1101 43.759Z" fill="#242226"/>
<path d="M33.0016 43.759H30.5557C30.2107 43.759 29.9316 44.0381 29.9316 44.3831C29.9316 44.7276 30.2107 45.0072 30.5557 45.0072H33.0016C33.3466 45.0072 33.6257 44.7276 33.6257 44.3831C33.6258 44.0387 33.3468 43.759 33.0016 43.759Z" fill="#242226"/>
<path d="M26.6267 38.0535H24.1807C23.8357 38.0535 23.5566 38.3331 23.5566 38.6776C23.5566 39.022 23.8357 39.3017 24.1807 39.3017H26.6266C26.971 39.3017 27.2507 39.022 27.2507 38.6776C27.2508 38.333 26.9718 38.0535 26.6267 38.0535Z" fill="#242226"/>
<path d="M30.874 36.1718C30.5475 36.0626 30.1937 36.2398 30.0844 36.5668C29.8816 37.1778 29.4204 37.664 28.8182 37.9012C28.4968 38.0273 28.3395 38.3899 28.4662 38.7107C28.563 38.9566 28.7982 39.1064 29.0472 39.1064C29.1234 39.1064 29.2008 39.0926 29.2757 39.0628C30.2237 38.6895 30.9501 37.9238 31.2696 36.9608C31.3782 36.6336 31.2016 36.2804 30.874 36.1718Z" fill="#242226"/>
<path d="M37.9881 45.2881C37.424 44.4437 36.5233 43.8938 35.5161 43.7802C35.169 43.7396 34.8639 43.9881 34.8258 44.3307C34.7871 44.6733 35.0336 44.9822 35.3762 45.0204C36.0172 45.0928 36.5908 45.4423 36.9497 45.9809C37.0695 46.1613 37.2679 46.2586 37.4695 46.2586C37.5882 46.2586 37.7086 46.225 37.8152 46.1538C38.1017 45.9628 38.1797 45.5751 37.9881 45.2881Z" fill="#242226"/>
<path d="M27.6842 26.9695C27.5838 26.6394 27.2361 26.4558 26.9047 26.557C26.6962 26.6212 26.4784 26.6537 26.2575 26.6537H24.6549C24.3098 26.6537 24.0308 26.9334 24.0308 27.2779C24.0308 27.6223 24.3098 27.902 24.6549 27.902H26.2569C26.6034 27.902 26.9447 27.8508 27.2723 27.7497C27.6012 27.6478 27.786 27.2983 27.6842 26.9695Z" fill="#242226"/>
<path d="M37.9332 47.4243C37.5881 47.4243 37.3091 47.7039 37.3091 48.0484V49.2966C37.3091 49.6411 37.5881 49.9207 37.9332 49.9207C38.2783 49.9207 38.5573 49.6411 38.5573 49.2966V48.0484C38.5573 47.7038 38.2783 47.4243 37.9332 47.4243Z" fill="#242226"/>
</g>
<defs>
<clipPath id="clip0_171_359">
<rect width="50" height="50" fill="white" transform="translate(0.5)"/>
</clipPath>
</defs>
</svg>
